<?xml version="1.0" encoding="UTF-8" standalone="no"?>
<svg
   viewBox="0 0 19 19"
   height="19"
   width="19"
   version="1.1"
   id="svg4168"
   sodipodi:docname="accessible-toilet.svg"
   inkscape:version="1.1.2 (b8e25be833, 2022-02-05)"
   xmlns:inkscape="http://www.inkscape.org/namespaces/inkscape"
   xmlns:sodipodi="http://sodipodi.sourceforge.net/DTD/sodipodi-0.dtd"
   xmlns="http://www.w3.org/2000/svg"
   xmlns:svg="http://www.w3.org/2000/svg"
   xmlns:rdf="http://www.w3.org/1999/02/22-rdf-syntax-ns#"
   xmlns:cc="http://creativecommons.org/ns#"
   xmlns:dc="http://purl.org/dc/elements/1.1/">
  <defs
     id="defs4172" />
  <sodipodi:namedview
     id="namedview4170"
     pagecolor="#ffffff"
     bordercolor="#999999"
     borderopacity="1"
     inkscape:pageshadow="0"
     inkscape:pageopacity="0"
     inkscape:pagecheckerboard="0"
     showgrid="false"
     showguides="false"
     inkscape:zoom="43.736842"
     inkscape:cx="10.220217"
     inkscape:cy="11.614922"
     inkscape:window-width="1920"
     inkscape:window-height="1017"
     inkscape:window-x="-8"
     inkscape:window-y="-8"
     inkscape:window-maximized="1"
     inkscape:current-layer="svg4168">
    <inkscape:grid
       type="xygrid"
       id="grid4174" />
  </sodipodi:namedview>
  <title
     id="title4162">wheelchair.svg</title>
  <rect
     fill="none"
     x="0"
     y="0"
     width="19"
     height="19"
     id="rect4164" />
  <path
     fill="#000000"
     d="M 8.4269897,3.2761389 C 8.8627927,3.9806404 8.6611337,4.9312634 7.9765896,5.3993291 7.2920458,5.8673948 6.3837588,5.6757116 5.9479559,4.9712101 5.512153,4.2667086 5.7138121,3.3160856 6.398356,2.8480199 7.0828997,2.379954 7.9911868,2.5716374 8.4269897,3.2761389 Z M 2.8198049,9.5684978 3.3580514,7.1311103 5.5654293,7.1828794 5.6115317,8.6640425 C 6.6753668,8.3409423 7.8023537,8.3645713 8.8399519,8.7316486 L 8.7780179,6.9587732 C 8.7489209,6.4754887 8.3488993,6.115859 7.8845704,6.1556207 c -0.00101,8.33e-5 -0.00201,1.666e-4 -0.00302,2.468e-4 L 7.1745676,6.1915239 2.9904681,6.0996923 C 2.7534638,6.0916001 2.5417815,6.2618747 2.4879114,6.5038293 L 1.887378,9.3347496 C 1.8677753,9.6163221 2.0705547,9.8566877 2.3403703,9.8716304 2.5431377,9.8829233 2.7339049,9.7622857 2.8198049,9.5684978 Z m 7.7412311,1.4302252 c 0.635679,1.054796 0.778752,2.360257 0.389835,3.557515 -0.282857,0.895777 -0.85095,1.668804 -1.608918,2.189253 C 7.4877183,18.013348 5.0278649,17.497552 3.842854,15.592365 3.3591323,14.806028 3.1545937,13.864253 3.2638503,12.926589 3.2961617,12.623742 3.359578,12.324797 3.4530183,12.034849 3.7338981,11.133406 4.3033508,10.354972 5.0649395,9.8314427 6.9220674,8.5682628 9.38057,9.0904284 10.561036,10.998723 Z M 9.46904,13.282277 C 9.574935,11.993792 8.6601147,10.880086 7.4257461,10.794828 6.417474,10.725121 5.4761018,11.368796 5.1277645,12.366103 c -0.1368169,0.276282 -0.202065,0.583861 -0.189168,0.89174 -0.015278,1.291267 0.976561,2.330649 2.2153681,2.321386 0.8913008,-0.0067 1.7045894,-0.56276 2.0718114,-1.416628 0.120985,-0.280585 0.202877,-0.577036 0.243264,-0.880324 z m 7.176961,1.799391 -2.711913,-4.766375 C 13.801972,10.041643 13.512671,9.8850785 13.20519,9.9208919 l -2.482129,0.2283421 c 0.349299,0.427118 0.628042,0.90908 0.826533,1.42872 l 1.256017,-0.115544 2.493244,4.36516 c 0.201547,0.35544 0.659311,0.466015 1.022432,0.247019 0.363119,-0.218991 0.494053,-0.684673 0.292509,-1.040111 z"
     id="path4166"
     sodipodi:nodetypes="sssssccccccccccccccccccccccccccccccccccccscc" />
  <g
     inkscape:groupmode="layer"
     id="layer1"
     inkscape:label="Layer 1" />
  <metadata
     id="metadata16023">
    <rdf:RDF>
      <cc:Work
         rdf:about="">
        <dc:title>wheelchair.svg</dc:title>
      </cc:Work>
    </rdf:RDF>
  </metadata>
</svg>
