<?xml version="1.0" encoding="UTF-8" standalone="no"?>
<svg
   viewBox="0 0 50 50"
   height="50"
   width="50"
   version="1.1"
   id="svg15"
   sodipodi:docname="big-womens-toilet.svg"
   inkscape:version="1.1.2 (b8e25be833, 2022-02-05)"
   xmlns:inkscape="http://www.inkscape.org/namespaces/inkscape"
   xmlns:sodipodi="http://sodipodi.sourceforge.net/DTD/sodipodi-0.dtd"
   xmlns="http://www.w3.org/2000/svg"
   xmlns:svg="http://www.w3.org/2000/svg"
   xmlns:rdf="http://www.w3.org/1999/02/22-rdf-syntax-ns#"
   xmlns:cc="http://creativecommons.org/ns#"
   xmlns:dc="http://purl.org/dc/elements/1.1/">
  <defs
     id="defs19" />
  <sodipodi:namedview
     id="namedview17"
     pagecolor="#ff88ff"
     bordercolor="#999999"
     borderopacity="1"
     inkscape:pageshadow="0"
     inkscape:pageopacity="0"
     inkscape:pagecheckerboard="0"
     showgrid="false"
     inkscape:zoom="16.16"
     inkscape:cx="25.030941"
     inkscape:cy="25"
     inkscape:window-width="1920"
     inkscape:window-height="1017"
     inkscape:window-x="-8"
     inkscape:window-y="-8"
     inkscape:window-maximized="1"
     inkscape:current-layer="layer11">
    <inkscape:grid
       type="xygrid"
       id="grid101" />
  </sodipodi:namedview>
  <title
     id="title9">toilet.svg</title>
  <metadata
     id="metadata1316">
    <rdf:RDF>
      <cc:Work
         rdf:about="">
        <dc:title>toilet.svg</dc:title>
      </cc:Work>
    </rdf:RDF>
  </metadata>
  <g
     inkscape:groupmode="layer"
     id="layer10"
     inkscape:label="Layer 1"
     sodipodi:insensitive="true">
    <rect
       style="display:inline;fill:#4e0075;fill-opacity:1;stroke-width:0.364265"
       id="rect171"
       width="50.042751"
       height="49.891018"
       x="-0.093598939"
       y="0.063899167"
       ry="9.8469305" />
  </g>
  <g
     inkscape:groupmode="layer"
     id="layer11"
     inkscape:label="Layer 2">
    <path
       fill="#000000"
       d="m 24.848518,12.008822 c -2.397092,0 -4.340461,-1.943369 -4.340461,-4.3404593 0,-2.3970933 1.943369,-4.3404623 4.340461,-4.3404623 2.397091,0 4.340461,1.943369 4.340461,4.3404623 0,2.3970903 -1.94337,4.3404593 -4.340461,4.3404593 z m 12.616273,10.532852 v 0 l -7.176228,-7.205165 v 0 c 0,0 -0.688688,-0.448802 -1.099584,-0.434045 h -8.680922 c -0.377042,8.57e-4 -1.012775,0.405109 -1.012775,0.405109 v 0 l -7.263037,7.205166 c -0.654253,0.512174 -0.76942,1.458106 -0.257246,2.112356 0.512175,0.654253 1.458107,0.769419 2.112358,0.257245 0.09577,-0.07495 0.1823,-0.161465 0.257245,-0.257245 l 6.163455,-6.250263 -5.787281,16.783115 h 5.787281 v 9.635824 c -0.02169,0.143814 -0.02169,0.290231 0,0.434045 0.160597,0.798934 0.938696,1.316607 1.73763,1.15601 0.583069,-0.1172 1.15601,-1.15601 1.15601,-1.15601 v 0 -10.069869 h 2.893641 v 10.127742 0 c 0,0 0.938696,1.316607 1.73763,1.15601 0.583069,-0.117187 1.038818,-0.572941 1.156011,-1.15601 0.02171,-0.143813 0.02171,-0.290232 0,-0.434045 v -9.693697 h 5.787281 l -5.787281,-16.783115 6.192391,6.250263 v 0 c 0,0 0.679715,0.49192 1.099583,0.49192 0.796909,-0.06134 1.406598,-0.734695 1.388948,-1.53363 0.0067,-0.386879 -0.40511,-1.041711 -0.40511,-1.041711 z"
       id="path13"
       sodipodi:nodetypes="ssssssccsccsccsccccccccsccccscccccccsccs"
       style="stroke-width:2.89364" />
    <path
       style="fill:#ffffff;stroke-width:0.0600187"
       d="m 27.634096,46.36255 c -0.323285,-0.113288 -0.662933,-0.362385 -1.006111,-0.737877 l -0.296173,-0.324059 v -5.096752 -5.096753 h -1.470458 -1.470457 l -9.03e-4,5.056576 -9.02e-4,5.056574 -0.297375,0.403075 c -0.411735,0.558085 -0.698128,0.738209 -1.167125,0.734054 -0.557946,-0.0049 -0.992128,-0.280261 -1.272693,-0.807026 -0.106265,-0.199514 -0.112703,-0.467062 -0.128195,-5.326659 l -0.01631,-5.116594 h -2.84958 c -1.56727,0 -2.849581,-0.02178 -2.849581,-0.04842 0,-0.02663 1.283809,-3.771322 2.85291,-8.321531 1.5691,-4.550208 2.844573,-8.298111 2.834388,-8.328671 -0.01019,-0.03056 -1.476303,1.422658 -3.258037,3.229375 -2.26921,2.301029 -3.311421,3.317671 -3.479589,3.394223 -0.31727,0.144427 -0.883788,0.14404 -1.202696,-8.21e-4 -0.48074,-0.218372 -0.867948,-0.815718 -0.867948,-1.338981 0,-0.572273 -0.03812,-0.528212 3.528558,-4.07865 4.302246,-4.282658 4.354523,-4.332341 4.754021,-4.518122 l 0.330104,-0.153509 4.563114,-5.87e-4 4.563113,-5.86e-4 0.418438,0.203206 c 0.390248,0.189516 0.661213,0.44728 4.022132,3.826191 3.779796,3.800031 3.839804,3.868237 3.95803,4.498706 0.125625,0.669922 -0.489575,1.47368 -1.216974,1.589973 -0.221913,0.03547 -0.31843,0.01093 -0.701681,-0.178485 -0.420646,-0.207895 -0.611133,-0.388421 -3.567252,-3.380711 -1.717582,-1.7386 -3.135547,-3.148419 -3.151034,-3.132931 -0.01548,0.01549 1.266506,3.781646 2.848874,8.369241 1.582368,4.587595 2.877204,8.347834 2.877412,8.356086 2.1e-4,0.0082 -1.296025,0.01501 -2.880517,0.01501 h -2.880898 l -0.0013,5.116593 c -0.0012,4.834318 -0.0074,5.129839 -0.111447,5.35667 -0.266527,0.58101 -0.92864,0.949398 -1.405828,0.782177 z"
       id="path311" />
    <path
       style="fill:#ffffff;stroke-width:0.0600187"
       d="M 24.231569,11.932689 C 23.3378,11.7978 22.608173,11.434529 21.907876,10.775758 20.924121,9.8503333 20.43267,8.5399919 20.574902,7.2216884 c 0.06369,-0.5903352 0.146875,-0.8769141 0.416155,-1.4337114 0.436279,-0.9021081 1.110839,-1.5593808 2.069737,-2.0166958 1.232387,-0.5877475 2.669691,-0.5300121 3.911217,0.1571105 0.563527,0.3118841 1.362668,1.124779 1.651111,1.6795293 0.391057,0.7520995 0.49995,1.2126089 0.49673,2.1006542 -0.0026,0.69159 -0.02165,0.8347989 -0.168519,1.2603926 -0.399175,1.1567682 -1.159169,2.0297432 -2.239084,2.5719482 -0.692549,0.347715 -1.708978,0.50824 -2.48068,0.391773 z"
       id="path350" />
  </g>
</svg>
