<?xml version="1.0" encoding="UTF-8" standalone="no"?>
<svg
   viewBox="0 0 50 50"
   height="50"
   width="50"
   version="1.1"
   id="svg18209"
   sodipodi:docname="big-stairs-filled-3.svg"
   inkscape:version="1.1.2 (b8e25be833, 2022-02-05)"
   xmlns:inkscape="http://www.inkscape.org/namespaces/inkscape"
   xmlns:sodipodi="http://sodipodi.sourceforge.net/DTD/sodipodi-0.dtd"
   xmlns="http://www.w3.org/2000/svg"
   xmlns:svg="http://www.w3.org/2000/svg"
   xmlns:rdf="http://www.w3.org/1999/02/22-rdf-syntax-ns#"
   xmlns:cc="http://creativecommons.org/ns#"
   xmlns:dc="http://purl.org/dc/elements/1.1/">
  <defs
     id="defs18213" />
  <sodipodi:namedview
     id="namedview18211"
     pagecolor="#ff9dff"
     bordercolor="#999999"
     borderopacity="1"
     inkscape:pageshadow="0"
     inkscape:pageopacity="0"
     inkscape:pagecheckerboard="0"
     showgrid="false"
     inkscape:zoom="11.313708"
     inkscape:cx="24.792933"
     inkscape:cy="24.925515"
     inkscape:window-width="1920"
     inkscape:window-height="1017"
     inkscape:window-x="-8"
     inkscape:window-y="-8"
     inkscape:window-maximized="1"
     inkscape:current-layer="svg18209"
     width="50px">
    <inkscape:grid
       type="xygrid"
       id="grid27904" />
  </sodipodi:namedview>
  <title
     id="title18203">entrance-alt1.svg</title>
  <path
     fill="#000000"
     d="m 6.3216456,37.259576 c -0.817244,0 -1.479752,0.719448 -1.479752,1.606932 v 6.948498 c 0,2.142562 -2.9595051,2.142575 -2.9595051,0 v -8.55543 c 0,-1.774969 1.3960317,-3.213864 3.0305217,-3.213864 1.4504867,0.055 8.7935508,-0.08132 9.6669488,0.09417 1.445413,0.290468 1.315624,3.051259 0.272789,3.05517 0,0 -7.7095915,0.09063 -8.5310024,0.06453 z"
     id="path18207"
     sodipodi:nodetypes="csssscsscc"
     style="fill:#000000;stroke-width:3.21387" />
  <metadata
     id="metadata18215">
    <rdf:RDF>
      <cc:Work
         rdf:about="">
        <dc:title>entrance-alt1.svg</dc:title>
      </cc:Work>
    </rdf:RDF>
  </metadata>
  <path
     d="m 17.136421,27.052679 c -0.817243,0 -1.479752,0.719448 -1.479752,1.606931 v 6.948499 c 0,2.142562 -2.959504,2.142575 -2.959504,0 v -8.55543 c 0,-1.774971 1.396032,-3.213866 3.030523,-3.213866 1.450485,0.05499 8.793551,-0.08134 9.666945,0.09417 1.445414,0.290469 1.315626,3.051259 0.272794,3.055171 0,0 -7.709591,0.09064 -8.531001,0.06454 z"
     style="fill:#000000;stroke-width:3.21387"
     id="path26660"
     sodipodi:nodetypes="cssssccccc" />
  <path
     d="m 28.044497,16.716816 c -1.269382,0.07251 -1.479754,0.719448 -1.479754,1.606933 v 6.948496 c 0,2.14256 -2.959506,2.142575 -2.959506,0 v -8.555429 c 0,-1.774968 1.396033,-3.213865 3.030524,-3.213865 1.450489,0.05499 8.793552,-0.08134 9.666949,0.09417 1.445413,0.29047 1.315625,3.051259 0.272793,3.05517 0,0 -6.958271,0.09657 -8.531002,0.06454 z"
     style="fill:#000000;stroke-width:3.21387"
     id="path26660-4"
     sodipodi:nodetypes="cssssccccc" />
  <path
     style="fill:#000000;stroke-width:0.0928125"
     d="M 2.6819603,47.181818 C 2.5163759,47.100189 2.2866656,46.88187 2.1714915,46.696666 L 1.9620852,46.359933 V 41.44087 36.521808 l 0.2469191,-0.526727 c 0.3302119,-0.704407 0.9120462,-1.316079 1.549791,-1.629265 l 0.5236028,-0.257133 4.2432875,-0.02755 4.2432874,-0.02755 0.02609,-3.916981 0.02609,-3.916974 0.245763,-0.524202 c 0.312971,-0.667554 1.05932,-1.320135 1.550347,-1.550346 l 0.524203,-0.245765 4.24617,-0.02757 4.246173,-0.02757 0.0023,-3.684939 c 0.0013,-2.092375 0.04194,-3.857074 0.09412,-4.083234 0.226295,-0.98104 0.922387,-1.816392 1.709194,-2.231704 l 0.468295,-0.247187 4.594219,-0.02925 c 5.357464,-0.03411 5.825173,-0.009 6.233635,0.33471 0.383312,0.322537 0.557098,0.768495 0.553974,1.421578 -0.0026,0.568719 -0.184104,1.041238 -0.454116,1.183009 -0.0888,0.04663 -2.228861,0.115283 -4.755681,0.152571 -4.163665,0.06143 -4.625123,0.0835 -4.923975,0.235376 -0.600277,0.305053 -0.593479,0.253728 -0.64487,4.8695 -0.04247,3.814344 -0.06154,4.211005 -0.219989,4.573721 -0.09541,0.21844 -0.2607,0.443836 -0.36729,0.50088 -0.13092,0.07007 -1.676009,0.121889 -4.762057,0.159716 -4.423741,0.05422 -4.57636,0.06205 -4.824381,0.247354 -0.140869,0.105248 -0.342237,0.306602 -0.447484,0.447455 -0.184944,0.247511 -0.192916,0.396679 -0.237766,4.449266 -0.04093,3.699613 -0.0648,4.226739 -0.202708,4.478367 -0.30064,0.548562 -0.08028,0.523152 -4.989906,0.575389 -4.3984186,0.04679 -4.5531329,0.05451 -4.8885191,0.243557 -0.2106859,0.118761 -0.4308708,0.355453 -0.5621389,0.604281 -0.2157259,0.40893 -0.2157913,0.410207 -0.2178287,4.269375 -0.00188,3.56275 -0.015345,3.889626 -0.1746657,4.240435 -0.3185602,0.701442 -1.2024385,0.988147 -1.9342024,0.627402 z"
     id="path201"
     sodipodi:nodetypes="cscccsscccccsscccccscsscsscsssssscsssssscc" />
  <path
     d="m 34.60366,12.917232 0.0023,-3.684939 c 0.0013,-2.092375 0.04194,-3.8570742 0.09412,-4.0832342 0.226295,-0.9810394 2.869904,-3.1114559 1.709194,-2.2317042 l 0.468295,-0.2471865 4.594218,-0.029249 c 5.357465,-0.034108 5.825174,-0.00902 6.233635,0.3347102 0.383313,0.3225365 0.557099,0.7684952 0.553975,1.4215773 -0.0026,0.5687198 -0.184104,1.041238 -0.454117,1.1830093 -0.0888,0.046629 -2.22886,0.1152833 -4.75568,0.1525711 -4.163665,0.061435 -4.625123,0.083501 -4.923975,0.2353758 -0.600277,0.3050531 -0.593479,0.2537282 -0.64487,4.8694992 -0.04247,3.814345 -0.06155,4.211006 -0.219989,4.573722 -0.09541,0.218439 -0.2607,0.443836 -0.36729,0.50088 M 36.36448,13.006043 c 1.445413,0.290469 1.315625,3.051259 0.272794,3.055171 M 39.014344,5.7898748 C 37.744961,5.8623868 37.53678,6.5093259 37.53459,7.3968076 L 37.5174,14.362491 c -0.0053,2.142554 -2.942319,2.125387 -2.942319,-0.01719 V 5.7898748 c 0,-1.7749677 1.396033,-3.2138645 3.030524,-3.2138645 1.450489,0.054989 8.793552,-0.081345 9.666949,0.094171 1.445413,0.2904693 1.315625,3.0512592 0.272793,3.0551697 0,0 -6.958271,0.096569 -8.531001,0.064537 z"
     style="fill:#000000;stroke-width:3.21387"
     id="path3383"
     sodipodi:nodetypes="cccccsccscsccccccsssscsccc" />
  <path
     style="fill:#000000;stroke-width:0.125"
     d="M 2.5337773,47.066736 C 1.9402414,46.599861 1.9238816,46.432857 1.9631672,41.241884 1.9988507,36.526861 2.0084341,36.359399 2.2702964,35.875 2.5889343,35.285576 3.2017931,34.682632 3.8125,34.357744 c 0.3977541,-0.2116 0.8264415,-0.236138 4.71875,-0.270096 l 4.28125,-0.03735 v -3.872913 c 0,-4.175252 0.01453,-4.283966 0.691277,-5.171223 0.180991,-0.237292 0.61679,-0.574813 0.968442,-0.750049 l 0.639367,-0.31861 h 4.287956 4.287958 l 7.5e-4,-3.84375 c 3.75e-4,-2.262138 0.0539,-4.03533 0.130004,-4.309342 0.204241,-0.735412 0.85599,-1.495091 1.611321,-1.878158 L 26.107329,13.5625 H 30.397414 34.6875 V 9.3084851 c 0,-4.5814075 0.0095,-4.6584721 0.683253,-5.5418058 0.176577,-0.2315053 0.606523,-0.5690274 0.955435,-0.750049 L 36.960571,2.6875 h 5.166374 5.166374 l 0.38223,0.3216252 C 48.31175,3.5444534 48.466221,4.7217859 47.985962,5.375 47.809334,5.6152381 47.618104,5.6275372 43.088579,5.68998 38.126764,5.758382 37.982689,5.775815 37.661661,6.3466148 37.548543,6.5477436 37.484136,7.8738225 37.429579,11.125 c -0.07475,4.454323 -0.124814,4.955827 -0.528197,5.290604 -0.137817,0.11438 -1.401758,0.175247 -4.794271,0.230877 -4.674569,0.07665 -5.088786,0.120643 -5.380435,0.57138 -0.05592,0.08643 -0.130872,2.069639 -0.166556,4.407139 -0.05495,3.599424 -0.09674,4.321074 -0.273013,4.714301 -0.131246,0.292783 -0.315072,0.487301 -0.49762,0.526563 -0.159218,0.03425 -2.261575,0.079 -4.671905,0.09946 -3.927945,0.03334 -4.417116,0.05993 -4.717008,0.256428 -0.747928,0.490061 -0.748015,0.4906 -0.803888,4.942735 -0.03157,2.515861 -0.103513,4.221625 -0.18725,4.439782 -0.07479,0.194845 -0.27148,0.405783 -0.437095,0.46875 -0.165614,0.06297 -2.211761,0.114484 -4.546993,0.114484 -4.7073445,0 -4.9053414,0.02858 -5.3596436,0.773727 -0.238572,0.391306 -0.2522953,0.622701 -0.2527372,4.261538 -5e-4,4.16398 -0.041986,4.467477 -0.6665153,4.876685 -0.4419125,0.289551 -1.2231269,0.273705 -1.6126746,-0.03271 z"
     id="path4000" />
  <rect
     style="fill:#000000;stroke-width:1.00288"
     id="rect4133"
     width="46.265163"
     height="3"
     x="2.1325824"
     y="44.972271"
     ry="1.5" />
  <rect
     style="fill:#000000;stroke-width:0.978924"
     id="rect4133-2"
     width="44.081398"
     height="3"
     x="-47.520199"
     y="45.398174"
     ry="1.5"
     transform="rotate(-90)" />
  <path
     style="fill:#ffffff;stroke-width:0.0883883"
     d="M 3.0935922,47.783621 C 2.6379829,47.573343 2.4103851,47.314389 2.1528264,46.713242 L 1.9445436,46.227106 v -4.817165 -4.817165 l 0.205114,-0.507938 c 0.2707986,-0.670597 0.9505931,-1.405933 1.5900398,-1.719951 l 0.5029433,-0.246985 4.2613099,-0.02605 4.2613104,-0.02605 0.02553,-3.951423 c 0.02484,-3.845596 0.03068,-3.962591 0.218146,-4.368372 0.283556,-0.61378 0.955939,-1.29022 1.575145,-1.584648 l 0.53033,-0.252167 4.264738,-7e-5 4.264738,-7e-5 V 20.11766 c 0,-3.54855 0.01135,-3.827368 0.177183,-4.353126 0.215762,-0.684041 0.651351,-1.294041 1.187426,-1.662871 0.783739,-0.539226 0.731809,-0.534052 5.360053,-0.534052 h 4.227564 l 0.02606,-4.2667992 0.02606,-4.2667996 0.289393,-0.5876383 c 0.292988,-0.5949364 1.132374,-1.4853643 1.400219,-1.4853643 0.07071,0 0.234746,-0.069606 0.364517,-0.1546796 0.21548,-0.1412616 0.624449,-0.1569231 4.71452,-0.180543 2.463215,-0.014225 4.844337,0.010824 5.291384,0.055665 0.708322,0.071048 0.845594,0.1129374 1.067836,0.3258586 0.140264,0.1343817 0.326418,0.4275306 0.413675,0.651442 0.150827,0.387036 0.159653,1.4509951 0.178975,21.5761204 0.01204,12.544995 -0.01257,21.310257 -0.06042,21.515723 -0.111146,0.477229 -0.343119,0.767041 -0.801396,1.001209 l -0.389205,0.198874 -21.83529,-0.0019 C 4.2426855,47.946867 3.4342643,47.940852 3.0935922,47.783621 Z M 45.475805,25.355558 V 5.6772518 L 41.962368,5.73991 c -3.915055,0.069821 -3.984226,0.080701 -4.286698,0.6743109 -0.137996,0.2708231 -0.154803,0.6250287 -0.156985,3.3084973 -0.0026,3.1791118 -0.10133,5.4201408 -0.267982,6.0819808 -0.0554,0.220014 -0.19946,0.492788 -0.320132,0.606168 l -0.219405,0.206142 -4.567,0.04973 c -4.996701,0.05441 -5.036224,0.05867 -5.377719,0.579781 -0.148627,0.2268 -0.165665,0.575725 -0.212927,4.360508 -0.04365,3.495505 -0.07342,4.181565 -0.197994,4.563525 -0.27219,0.834545 0.111242,0.772011 -5.080277,0.82856 -5.056853,0.05508 -4.904292,0.03682 -5.332615,0.638346 -0.269403,0.37834 -0.327932,1.313158 -0.335923,5.365335 -0.0042,2.128513 -0.03945,3.238601 -0.110346,3.475248 -0.206506,0.689254 0.04556,0.653221 -5.022503,0.717962 -5.0675921,0.06473 -4.9405793,0.04802 -5.3773225,0.707718 l -0.2351804,0.35524 -0.025102,3.387451 -0.025102,3.387451 H 25.14348 45.475805 Z"
     id="path4425" />
  <path
     style="fill:#ffffff;stroke-width:0.0883884"
     d="m 4.9070075,41.697205 c 0.00143,-3.203769 0.00418,-3.25308 0.2002198,-3.599212 0.382171,-0.674758 0.5224237,-0.717818 2.5523258,-0.783585 0.9889003,-0.03204 3.0435769,-0.05836 4.5659469,-0.05848 1.813599,-1.77e-4 2.829485,-0.03317 2.946428,-0.09575 0.09816,-0.05254 0.253774,-0.261354 0.345801,-0.464039 0.153708,-0.338538 0.167479,-0.61728 0.169262,-3.426138 0.0011,-1.68169 0.02813,-3.544625 0.06013,-4.139855 0.06306,-1.17276 0.15729,-1.424529 0.677448,-1.810011 0.243119,-0.180173 0.365343,-0.186297 4.77654,-0.239358 2.48987,-0.02995 4.61536,-0.08249 4.723311,-0.11675 0.209835,-0.0666 0.433796,-0.431126 0.573623,-0.93365 0.04734,-0.170148 0.111747,-2.158886 0.143119,-4.419418 0.0628,-4.52522 0.0427,-4.375631 0.625822,-4.658124 0.275005,-0.133226 0.835384,-0.156503 4.94164,-0.205262 l 4.631462,-0.05499 0.203686,-0.2368 c 0.112028,-0.13024 0.246956,-0.385889 0.29984,-0.568111 0.134314,-0.462792 0.258789,-3.572973 0.26265,-6.5626889 0.0037,-2.8545425 0.03217,-3.000873 0.64214,-3.2989554 0.295673,-0.1444902 0.68213,-0.1663387 3.734408,-0.2111258 l 3.404606,-0.049957 V 25.355205 44.945477 H 25.146486 4.9055535 Z"
     id="path193" />
  <path
     style="fill:#ffffff;stroke-width:0.0883884"
     d="m 15.717223,31.245282 c 0,-0.315988 0.01604,-0.445256 0.03565,-0.287262 0.01961,0.157994 0.01961,0.41653 0,0.574524 -0.01961,0.157995 -0.03565,0.02873 -0.03565,-0.287262 z"
     id="path232" />
  <path
     style="fill:#ffffff;stroke-width:0.0883884"
     d="m 15.622834,31.289476 c 9.81e-4,-0.194454 0.01908,-0.263596 0.04022,-0.153649 0.02114,0.109948 0.02034,0.269047 -0.0018,0.353554 -0.02212,0.08451 -0.03942,-0.0055 -0.03844,-0.199905 z"
     id="path271" />
  <path
     style="fill:#ffffff;stroke-width:0.0883884"
     d="M 13.214059,47.863588 C 4.1993435,47.822348 3.2455769,47.804493 3.0049953,47.672468 2.6388152,47.471517 2.4793672,47.277459 2.2166104,46.712957 L 1.9904648,46.227108 1.9896711,41.409943 1.9888774,36.592778 2.2506283,36.039486 C 2.5597472,35.386067 3.2090171,34.704679 3.8112446,34.401667 L 4.2426409,34.18461 8.4639553,34.14312 c 2.3217227,-0.02282 4.2495207,-0.0697 4.2839967,-0.104172 0.03448,-0.03448 0.08385,-1.840565 0.109715,-4.013534 l 0.04703,-3.950851 0.258963,-0.467433 c 0.327327,-0.590831 0.858435,-1.082302 1.543061,-1.4279 l 0.535227,-0.270182 h 4.200967 4.200967 l 0.0091,-1.789864 c 0.005,-0.984425 0.03481,-2.784233 0.06629,-3.999573 l 0.05723,-2.209709 0.258024,-0.525515 c 0.300644,-0.612319 0.846744,-1.191057 1.390842,-1.473965 0.353001,-0.183547 0.548496,-0.204882 2.416998,-0.263782 1.118112,-0.03525 3.090795,-0.06745 4.383737,-0.07156 l 2.350805,-0.0075 0.05778,-1.074537 c 0.03178,-0.590996 0.05778,-2.5013185 0.05778,-4.2451618 V 5.0772892 L 34.948285,4.5715766 C 35.319022,3.8387967 35.884073,3.239019 36.457408,2.9697029 l 0.488923,-0.229664 4.803509,-0.025016 c 3.029642,-0.015778 4.985402,0.00861 5.29606,0.066037 0.556633,0.1028991 0.752963,0.2474587 1.024672,0.7544748 l 0.189468,0.3535534 0.025,21.3706649 c 0.02458,21.007977 0.02208,21.377262 -0.146971,21.759441 -0.132833,0.30029 -0.279345,0.450349 -0.643722,0.659303 L 47.022603,47.949022 35.090176,47.92905 C 28.52734,47.918065 18.683088,47.888607 13.214059,47.863588 Z M 45.475807,25.33203 V 5.6301948 l -2.541165,0.041286 C 39.973381,5.719592 38.230181,5.823114 37.961691,5.9668053 37.566277,6.1784246 37.533258,6.44991 37.477008,9.9518649 c -0.0596,3.7103501 -0.168249,5.6175091 -0.343631,6.0317861 -0.251903,0.595032 0.01277,0.560776 -5.048405,0.653398 -3.855704,0.07056 -4.648449,0.106559 -4.920537,0.223429 -0.594016,0.255148 -0.555941,-0.05826 -0.689885,5.678552 -0.05325,2.280518 -0.114463,3.468248 -0.190692,3.699826 -0.210657,0.639954 -0.02904,0.614117 -5.10666,0.726486 -2.795455,0.06186 -4.650232,0.13754 -4.792867,0.195553 -0.649266,0.264072 -0.776991,0.925688 -0.788492,4.084387 -0.0045,1.239647 -0.03664,2.957397 -0.07139,3.817222 -0.07172,1.774478 -0.107804,1.869254 -0.748176,1.965284 -0.204408,0.03065 -2.260348,0.09269 -4.568756,0.13785 -2.5013892,0.04894 -4.3303269,0.120918 -4.5268472,0.178155 -0.2318269,0.06752 -0.4065729,0.207706 -0.588476,0.472093 l -0.258733,0.376055 -0.030242,3.420994 -0.030242,3.420995 20.3514182,-3.2e-5 20.351418,-3.3e-5 z"
     id="path310" />
</svg>
