<?xml version="1.0" encoding="UTF-8" standalone="no"?>
<svg
   viewBox="0 0 50 50"
   height="50"
   width="50"
   version="1.1"
   id="svg18209"
   sodipodi:docname="big-stairs.svg"
   inkscape:version="1.1.2 (b8e25be833, 2022-02-05)"
   xmlns:inkscape="http://www.inkscape.org/namespaces/inkscape"
   xmlns:sodipodi="http://sodipodi.sourceforge.net/DTD/sodipodi-0.dtd"
   xmlns="http://www.w3.org/2000/svg"
   xmlns:svg="http://www.w3.org/2000/svg"
   xmlns:rdf="http://www.w3.org/1999/02/22-rdf-syntax-ns#"
   xmlns:cc="http://creativecommons.org/ns#"
   xmlns:dc="http://purl.org/dc/elements/1.1/">
  <defs
     id="defs18213" />
  <sodipodi:namedview
     id="namedview18211"
     pagecolor="#ffffff"
     bordercolor="#999999"
     borderopacity="1"
     inkscape:pageshadow="0"
     inkscape:pageopacity="0"
     inkscape:pagecheckerboard="0"
     showgrid="false"
     inkscape:zoom="8"
     inkscape:cx="3.5625"
     inkscape:cy="29.375"
     inkscape:window-width="1920"
     inkscape:window-height="1017"
     inkscape:window-x="-8"
     inkscape:window-y="-8"
     inkscape:window-maximized="1"
     inkscape:current-layer="layer7"
     width="50px">
    <inkscape:grid
       type="xygrid"
       id="grid27904" />
  </sodipodi:namedview>
  <title
     id="title18203">entrance-alt1.svg</title>
  <metadata
     id="metadata18215">
    <rdf:RDF>
      <cc:Work
         rdf:about="">
        <dc:title>entrance-alt1.svg</dc:title>
      </cc:Work>
    </rdf:RDF>
  </metadata>
  <g
     inkscape:groupmode="layer"
     id="layer6"
     inkscape:label="Layer 1"
     sodipodi:insensitive="true">
    <rect
       style="display:inline;fill:#4e0075;fill-opacity:1;stroke-width:0.364265"
       id="rect171"
       width="50.042751"
       height="49.891018"
       x="0"
       y="0"
       ry="9.8469305" />
  </g>
  <g
     inkscape:groupmode="layer"
     id="layer7"
     inkscape:label="Layer 2">
    <path
       fill="#000000"
       d="m 10.219947,33.541241 c -0.941069,0 -1.7039577,0.828457 -1.7039577,1.850408 v 8.0013 c 0,2.467192 -3.4079146,2.467208 -3.4079146,0 v -9.851708 c 0,-2.043905 1.6075517,-3.700813 3.4896918,-3.700813 1.6702575,0.06334 10.1259075,-0.09365 11.1316385,0.108436 1.664415,0.33448 1.514962,3.513572 0.314122,3.518074 0,0 -8.877713,0.104358 -9.82358,0.07431 z"
       id="path18207"
       sodipodi:nodetypes="csssscsscc"
       style="stroke-width:3.70082" />
    <path
       d="m 22.673325,21.787844 c -0.941068,0 -1.703958,0.828456 -1.703958,1.850407 v 8.001301 c 0,2.467193 -3.407913,2.467207 -3.407913,0 v -9.851708 c 0,-2.043904 1.607552,-3.700814 3.489692,-3.700814 1.670257,0.06332 10.125909,-0.09368 11.131637,0.108437 1.664414,0.334479 1.514961,3.51357 0.314124,3.518074 0,0 -8.87771,0.104368 -9.823577,0.07432 z"
       style="fill:#000000;stroke-width:3.70082"
       id="path26660"
       sodipodi:nodetypes="cssssccccc" />
    <path
       d="m 35.234141,9.885942 c -1.461715,0.083491 -1.703961,0.828456 -1.703961,1.850407 v 8.001299 c 0,2.467191 -3.407915,2.467207 -3.407915,0 V 9.885942 c 0,-2.043903 1.607553,-3.700814 3.489695,-3.700814 1.670259,0.063325 10.125908,-0.093678 11.131637,0.1084365 1.664415,0.3344803 1.514962,3.5135716 0.314125,3.5180752 0,0 -8.012553,0.1111888 -9.823577,0.074313 z"
       style="fill:#000000;stroke-width:3.70082"
       id="path26660-4"
       sodipodi:nodetypes="cssssccccc" />
    <path
       style="fill:#ffffff;stroke-width:0.106875"
       d="m 6.0287939,44.966854 c -0.190673,-0.094 -0.4551886,-0.345395 -0.5878126,-0.55866 L 5.1998468,44.02044 V 38.356065 32.69169 l 0.284331,-0.606533 c 0.3802469,-0.811136 1.0502359,-1.515483 1.7846079,-1.876123 l 0.6029361,-0.296094 4.8862102,-0.03173 4.88621,-0.03173 0.03005,-4.510462 0.03004,-4.510455 0.283,-0.603626 c 0.360392,-0.768699 1.016549,-1.424857 1.785248,-1.785249 l 0.603627,-0.283 4.889531,-0.03174 4.889531,-0.03174 0.0027,-4.243264 c 0.0014,-2.409401 0.0483,-4.4414788 0.108375,-4.7019054 0.260583,-1.1296822 0.953287,-2.0341492 1.968165,-2.5698416 l 0.539247,-0.2846392 5.290313,-0.033674 c 6.169202,-0.039267 6.707775,-0.010349 7.178125,0.3854236 0.44139,0.371406 0.641507,0.8849342 0.637909,1.6369678 -0.0031,0.6548905 -0.211997,1.199002 -0.522922,1.3622528 -0.102259,0.053691 -2.566566,0.1327511 -5.476237,0.1756893 -4.794524,0.070753 -5.325899,0.096154 -5.670034,0.2710387 -0.691225,0.351272 -0.683398,0.292171 -0.742576,5.607302 -0.04891,4.392277 -0.07087,4.849038 -0.25332,5.266711 -0.109876,0.251536 -0.300199,0.511083 -0.42294,0.576771 -0.150757,0.08068 -1.929952,0.140356 -5.483581,0.183914 -5.094005,0.06244 -5.269747,0.07145 -5.555349,0.284832 -0.162212,0.121195 -0.39409,0.353058 -0.515284,0.515252 -0.212966,0.285011 -0.222146,0.456782 -0.273791,5.123397 -0.04715,4.260161 -0.07462,4.867154 -0.233422,5.156906 -0.346191,0.63168 -0.09244,0.602419 -5.745951,0.66257 -5.0648467,0.05389 -5.2430032,0.06277 -5.629205,0.28046 -0.2426083,0.136756 -0.4961543,0.409309 -0.6473109,0.69584 -0.2484123,0.470888 -0.2484875,0.472359 -0.250834,4.91625 -0.00217,4.102558 -0.01767,4.478962 -0.2011301,4.882924 -0.3668269,0.80772 -1.3846258,1.137866 -2.227263,0.722463 z"
       id="path201" />
  </g>
</svg>
