<?xml version="1.0" encoding="UTF-8" standalone="no"?>
<svg
   viewBox="0 0 50 50"
   height="50"
   width="50"
   version="1.1"
   id="svg4168"
   sodipodi:docname="big-accessible-toilet.svg"
   inkscape:version="1.1.2 (b8e25be833, 2022-02-05)"
   xmlns:inkscape="http://www.inkscape.org/namespaces/inkscape"
   xmlns:sodipodi="http://sodipodi.sourceforge.net/DTD/sodipodi-0.dtd"
   xmlns="http://www.w3.org/2000/svg"
   xmlns:svg="http://www.w3.org/2000/svg"
   xmlns:rdf="http://www.w3.org/1999/02/22-rdf-syntax-ns#"
   xmlns:cc="http://creativecommons.org/ns#"
   xmlns:dc="http://purl.org/dc/elements/1.1/">
  <defs
     id="defs4172" />
  <sodipodi:namedview
     id="namedview4170"
     pagecolor="#ffffff"
     bordercolor="#999999"
     borderopacity="1"
     inkscape:pageshadow="0"
     inkscape:pageopacity="0"
     inkscape:pagecheckerboard="0"
     showgrid="false"
     showguides="false"
     inkscape:zoom="11.313709"
     inkscape:cx="19.224465"
     inkscape:cy="24.130018"
     inkscape:window-width="1920"
     inkscape:window-height="1017"
     inkscape:window-x="-8"
     inkscape:window-y="-8"
     inkscape:window-maximized="1"
     inkscape:current-layer="layer1"
     width="20px">
    <inkscape:grid
       type="xygrid"
       id="grid4174"
       originx="0"
       originy="0" />
  </sodipodi:namedview>
  <title
     id="title4162">wheelchair.svg</title>
  <g
     inkscape:groupmode="layer"
     id="layer2"
     inkscape:label="Layer 2"
     sodipodi:insensitive="true">
    <rect
       style="display:inline;fill:#4e0075;fill-opacity:1;stroke-width:0.364265"
       id="rect171"
       width="50.042751"
       height="49.891018"
       x="-0.0074745081"
       y="-0.019995518"
       ry="9.8469305" />
  </g>
  <g
     inkscape:groupmode="layer"
     id="layer1"
     inkscape:label="Layer 1">
    <rect
       fill="none"
       x="4.0174718"
       y="4.1763558"
       width="13.889476"
       height="13.889476"
       id="rect4164"
       style="stroke-width:0.731025" />
    <path
       fill="#000000"
       d="m 22.308873,5.5105549 c 1.274331,2.0600323 0.68466,4.8397491 -1.317015,6.2084211 -2.001674,1.36867 -4.657597,0.808169 -5.931928,-1.251864 C 13.785599,8.4070796 14.37527,5.6273628 16.376946,4.2586917 18.378619,2.8900206 21.034541,3.450521 22.308873,5.5105549 Z M 5.9129038,23.910041 7.48679,16.782877 l 6.454594,0.151377 0.134808,4.331069 c 3.110761,-0.944777 6.406182,-0.875683 9.440223,0.197688 l -0.181101,-5.184065 c -0.08508,-1.413172 -1.254785,-2.464765 -2.61253,-2.348499 -0.0029,2.45e-4 -0.0059,4.87e-4 -0.0088,7.21e-4 L 18.646665,14.035432 6.4119393,13.766908 c -0.6930234,-0.02367 -1.3120039,0.474237 -1.4695254,1.181737 l -1.7560194,8.277893 c -0.057318,0.823346 0.5356264,1.5262 1.3245946,1.569894 0.5929119,0.03302 1.1507345,-0.319735 1.4019147,-0.886391 z m 22.6361342,4.182122 c 1.858789,3.084329 2.277148,6.901626 1.139916,10.402528 -0.827102,2.619343 -2.488263,4.879751 -4.704637,6.401595 -5.421968,3.707342 -12.614826,2.199103 -16.0799153,-3.371855 -1.4144505,-2.299328 -2.0125427,-5.053172 -1.693064,-7.794995 0.094481,-0.885554 0.2799163,-1.7597 0.553145,-2.607538 0.8213205,-2.635909 2.4864573,-4.912128 4.7134183,-6.44298 5.430428,-3.693664 12.619336,-2.166799 16.071137,3.413245 z m -3.193106,6.67734 c 0.309648,-3.767658 -2.365378,-7.024247 -5.974796,-7.27355 -2.948288,-0.203831 -5.700954,1.67834 -6.719527,4.594565 -0.400067,0.807876 -0.590859,1.707269 -0.553146,2.607536 -0.04467,3.775794 2.855561,6.815053 6.477957,6.787966 2.606252,-0.0196 4.98439,-1.645566 6.058184,-4.142361 0.353772,-0.82046 0.593233,-1.687312 0.711328,-2.574156 z m 20.986151,5.261599 -7.929904,-13.937357 c -0.38632,-0.80018 -1.232265,-1.25799 -2.13137,-1.153269 l -7.257994,0.667696 c 1.021385,1.248936 1.836458,2.658241 2.416865,4.177719 l 3.672719,-0.337861 7.290496,12.764164 c 0.589343,1.039341 1.92789,1.362674 2.989693,0.722309 1.061797,-0.640352 1.44466,-2.002053 0.855324,-3.041389 z"
       id="path4166"
       sodipodi:nodetypes="sssssccccccccccccccccccccccccccccccccccccscc"
       style="stroke-width:2.9241" />
    <path
       style="fill:#ffffff;stroke-width:0.0797705"
       d="M 16.622372,46.722932 C 11.342257,45.780795 7.4401682,41.212634 7.1923596,35.68325 7.1195801,34.059313 7.3639072,32.447126 7.9287011,30.824515 9.506924,26.290398 13.325201,23.218233 17.958055,22.75495 c 2.451173,-0.245115 5.185621,0.481121 7.302074,1.939342 1.268781,0.874183 2.650485,2.385911 3.436809,3.760226 1.144205,1.999812 1.753808,4.81834 1.530017,7.074092 -0.390674,3.937875 -2.161092,7.093396 -5.198484,9.265569 -1.27007,0.908283 -3.111345,1.666212 -4.690886,1.930924 -0.933128,0.156379 -2.832851,0.155271 -3.715213,-0.0022 z m 3.695657,-5.450429 c 1.916143,-0.553583 3.571821,-2.039334 4.361729,-3.914073 0.99268,-2.355985 0.977098,-4.293442 -0.05131,-6.3793 -0.360354,-0.73089 -0.5075,-0.931378 -1.177668,-1.604595 -1.269695,-1.275471 -2.46594,-1.813422 -4.19599,-1.886933 -1.455749,-0.06185 -2.473399,0.196754 -3.743523,0.951321 -0.65764,0.390696 -1.642097,1.345598 -2.091292,2.028508 -0.384182,0.584071 -1.003337,1.971118 -1.193987,2.674803 -0.204507,0.754833 -0.186557,2.36575 0.03657,3.282989 0.613278,2.520955 2.491727,4.411468 4.923031,4.954647 0.778232,0.173864 2.344844,0.120167 3.132421,-0.107367 z"
       id="path2295" />
    <path
       style="fill:#ffffff;stroke-width:0.0797705"
       d="m 43.891413,43.174125 c -0.431789,-0.07989 -0.891706,-0.319853 -1.156449,-0.603365 -0.116417,-0.124672 -1.86786,-3.132795 -3.892093,-6.684717 -2.024233,-3.551925 -3.687922,-6.464246 -3.697085,-6.471825 -0.0091,-0.0076 -0.698699,0.05266 -1.532301,0.133871 -0.833601,0.08121 -1.660654,0.148716 -1.837893,0.150015 l -0.322255,0.0024 -0.296587,-0.700409 c -0.343094,-0.810281 -1.124643,-2.153235 -1.67071,-2.870847 -0.208028,-0.27338 -0.349233,-0.497054 -0.313789,-0.497054 0.03544,0 1.605621,-0.143282 3.489281,-0.318403 1.883662,-0.175122 3.640218,-0.31792 3.903461,-0.31733 0.555804,0.0012 1.006565,0.178817 1.365774,0.538026 0.304366,0.304364 8.307073,14.344772 8.463427,14.848721 0.297414,0.958591 -0.250344,2.140508 -1.199502,2.58821 -0.488441,0.23039 -0.849919,0.286619 -1.303279,0.202732 z"
       id="path2334" />
    <path
       style="fill:#ffffff;stroke-width:0.0797705"
       d="m 3.9965483,24.585692 c -0.4264931,-0.21111 -0.7357324,-0.703217 -0.7357324,-1.170805 0,-0.180764 0.3972647,-2.205774 0.8828103,-4.500024 0.9734573,-4.599682 0.9842194,-4.632392 1.6267938,-4.944579 l 0.3504422,-0.170257 6.2478848,0.136034 c 3.468646,0.07552 6.835144,0.111603 7.568074,0.08111 1.638344,-0.06815 1.965025,0.01261 2.593688,0.641271 0.665286,0.665286 0.726409,0.916898 0.826902,3.403933 0.0468,1.158032 0.08513,2.379816 0.08521,2.715074 l 1.6e-4,0.609561 -0.618221,-0.191253 c -1.301571,-0.402652 -2.192427,-0.529993 -3.968582,-0.567276 -1.786585,-0.0375 -2.603838,0.04064 -3.987477,0.381259 -0.379988,0.09355 -0.704418,0.156549 -0.720955,0.140011 -0.01654,-0.01653 -0.06112,-0.97051 -0.09909,-2.119941 -0.03796,-1.149429 -0.0846,-2.104379 -0.103636,-2.122108 -0.01904,-0.01774 -1.489533,-0.05832 -3.267766,-0.09018 l -3.2331808,-0.05795 -0.7844655,3.57877 C 5.8043281,24.239234 5.7894646,24.281833 5.1738642,24.595888 4.7739315,24.79992 4.423202,24.796882 3.9965483,24.585692 Z"
       id="path2373" />
    <path
       style="fill:#ffffff;stroke-width:0.0797705"
       d="M 17.380191,12.208725 C 16.684972,11.970834 16.223858,11.689362 15.725158,11.198468 14.694845,10.184278 14.226742,8.596944 14.533572,7.1578046 14.91174,5.3840677 16.381083,3.9229338 18.098125,3.6131677 19.657751,3.3318011 21.30416,4.0770148 22.226346,5.4817233 22.785382,6.333266 23.043313,7.4919408 22.891563,8.4699939 22.60037,10.346781 21.417282,11.751903 19.699,12.261717 c -0.64123,0.190253 -1.67713,0.166579 -2.318809,-0.05299 z"
       id="path2412" />
  </g>
  <metadata
     id="metadata16023">
    <rdf:RDF>
      <cc:Work
         rdf:about="">
        <dc:title>wheelchair.svg</dc:title>
      </cc:Work>
    </rdf:RDF>
  </metadata>
</svg>
