<?xml version="1.0" encoding="UTF-8" standalone="no"?>
<svg
   viewBox="0 0 50 50"
   height="50"
   width="50"
   version="1.1"
   id="svg18209"
   sodipodi:docname="big-stairs-filled.svg"
   inkscape:version="1.1.2 (b8e25be833, 2022-02-05)"
   xmlns:inkscape="http://www.inkscape.org/namespaces/inkscape"
   xmlns:sodipodi="http://sodipodi.sourceforge.net/DTD/sodipodi-0.dtd"
   xmlns="http://www.w3.org/2000/svg"
   xmlns:svg="http://www.w3.org/2000/svg"
   xmlns:rdf="http://www.w3.org/1999/02/22-rdf-syntax-ns#"
   xmlns:cc="http://creativecommons.org/ns#"
   xmlns:dc="http://purl.org/dc/elements/1.1/">
  <defs
     id="defs18213" />
  <sodipodi:namedview
     id="namedview18211"
     pagecolor="#ffffff"
     bordercolor="#999999"
     borderopacity="1"
     inkscape:pageshadow="0"
     inkscape:pageopacity="0"
     inkscape:pagecheckerboard="0"
     showgrid="true"
     inkscape:zoom="8"
     inkscape:cx="15.555642"
     inkscape:cy="29.753586"
     inkscape:window-width="1920"
     inkscape:window-height="1017"
     inkscape:window-x="-8"
     inkscape:window-y="-8"
     inkscape:window-maximized="1"
     inkscape:current-layer="svg18209"
     width="50px">
    <inkscape:grid
       type="xygrid"
       id="grid27904" />
  </sodipodi:namedview>
  <title
     id="title18203">entrance-alt1.svg</title>
  <rect
     fill="none"
     x="0"
     y="0"
     width="19"
     height="19"
     id="rect18205" />
  <path
     fill="#000000"
     d="m 7.6214617,34.868628 c -1.1006649,0 -1.9929324,0.968954 -1.9929324,2.164219 v 9.358245 c 0,2.885606 -3.985865,2.885624 -3.985865,0 V 34.868628 c 0,-2.390532 1.8801774,-4.328437 4.0815108,-4.328437 1.9535173,0.07408 11.8431669,-0.109538 13.0194599,0.126826 1.946684,0.391204 1.771885,4.109441 0.367394,4.114706 0,0 -10.38329,0.122056 -11.4895673,0.08691 z"
     id="path18207"
     sodipodi:nodetypes="csssscsscc"
     style="stroke-width:4.32844" />
  <metadata
     id="metadata18215">
    <rdf:RDF>
      <cc:Work
         rdf:about="">
        <dc:title>entrance-alt1.svg</dc:title>
      </cc:Work>
    </rdf:RDF>
  </metadata>
  <path
     d="m 22.186817,21.121965 c -1.100664,0 -1.992933,0.968954 -1.992933,2.164218 v 9.358247 c 0,2.885606 -3.985864,2.885622 -3.985864,0 V 21.121965 c 0,-2.390532 1.880178,-4.328438 4.081512,-4.328438 1.953516,0.07406 11.843167,-0.109564 13.019457,0.126826 1.946684,0.391204 1.771885,4.109439 0.367397,4.114707 0,0 -10.383287,0.122068 -11.489563,0.08692 z"
     style="fill:#000000;stroke-width:4.32844"
     id="path26660"
     sodipodi:nodetypes="cssssccccc" />
  <path
     d="m 36.877829,7.2016111 c -1.709607,0.09765 -1.992936,0.9689544 -1.992936,2.1642187 v 9.3582452 c 0,2.885603 -3.985866,2.885622 -3.985866,0 V 7.2016111 c 0,-2.3905299 1.880179,-4.3284375 4.081514,-4.3284375 C 36.934061,2.9472376 46,3 48,3 c 1,1 0.632602,2.8852923 0,4 0,0 -9.00401,0.2447532 -11.122166,0.2016227 z"
     style="fill:#000000;stroke-width:4.32844"
     id="path26660-4"
     sodipodi:nodetypes="cssssccccc" />
  <path
     style="fill:#000000;stroke-width:0.125"
     d="M 2.7195288,48.231918 C 2.4965195,48.121979 2.1871445,47.827947 2.0320287,47.578514 L 1.75,47.125 V 40.5 33.875 L 2.0825509,33.165606 C 2.5272841,32.216908 3.310897,31.39311 4.1698116,30.971309 L 4.875,30.625 10.589866,30.58789 16.304731,30.55078 16.339871,25.275387 16.375,20 16.705995,19.294005 c 0.421511,-0.899063 1.188947,-1.666499 2.08801,-2.08801 L 19.5,16.875 25.21875,16.83788 30.9375,16.80076 30.9406,11.837879 C 30.9423,9.0198661 30.997095,6.6431665 31.067355,6.3385739 31.37213,5.0173082 32.18231,3.9594521 33.369301,3.3329113 L 34,3 40.1875,2.9606159 c 7.215441,-0.045927 7.900073,-0.1605289 8.45019,0.3023629 0.516246,0.434393 0.445575,1.1990031 0.441368,2.0785746 -0.0037,0.7659537 0.0021,1.3867741 -0.361602,1.5777107 C 48.597855,6.9820605 45.715625,7.0745285 42.3125,7.1247486 36.70487,7.2075008 36.083379,7.2372092 35.680883,7.4417529 34.872431,7.8525974 34.881586,7.7834734 34.812373,14 c -0.0572,5.137166 -0.08289,5.67139 -0.296282,6.159896 -0.12851,0.294194 -0.35111,0.597758 -0.494666,0.674586 -0.176325,0.09437 -2.257253,0.164159 -6.413546,0.215104 -5.9579,0.07303 -6.163446,0.08357 -6.497483,0.333138 -0.189722,0.141747 -0.460925,0.412932 -0.602672,0.602633 -0.249083,0.333347 -0.259819,0.534248 -0.320224,5.992277 -0.05514,4.982644 -0.08728,5.692577 -0.273007,6.03147 -0.404903,0.738806 -0.108123,0.704583 -6.720412,0.774935 -5.9237963,0.06303 -6.1321664,0.07341 -6.5838645,0.328023 -0.2837524,0.159948 -0.5802974,0.478724 -0.7570888,0.813848 -0.2905407,0.550746 -0.2906286,0.552467 -0.293373,5.75 -0.00253,4.798314 -0.020667,5.238552 -0.2352399,5.711022 -0.4290373,0.944703 -1.6194454,1.330838 -2.604986,0.844986 z"
     id="path201"
     sodipodi:nodetypes="sscccsscccccssccccsscssssssssssssssssssss" />
  <path
     d="m 49,45 c -0.304775,1.321265 -1.114958,2.379115 -2.301946,3.005662 l -0.630699,0.332912 -6.1875,0.03938 C 32.664414,48.423876 3.6226451,48.581369 3.3687391,48.495947 2.7292708,48.28081 2.995793,46.879571 3,46 3.0037,45.234046 2.2957511,52.228849 4.356082,45.110859 4.3936415,44.9811 34.575995,45.086316 37.776759,45.053519 43,45 45,45 45,45"
     style="fill:#000000;stroke-width:0.125"
     id="path1228"
     sodipodi:nodetypes="cscsscssc" />
  <path
     d="m 45.69679,47.502105 c 1.321265,-0.304775 2.379115,-1.114957 3.005662,-2.301945 L 49,45 l 0.07474,-6.618039 c 0.08149,-7.215127 0.114436,-33.6939674 0.02901,-33.9478734 -0.215137,-0.639469 -1.616376,-0.372946 -2.495947,-0.368739 -0.765954,0.0037 6.228849,-0.704249 -0.889141,1.3560824 -0.129759,0.03756 0.06444,27.65667 0.03164,30.857434"
     style="fill:#000000;stroke-width:0.125"
     id="path1626"
     sodipodi:nodetypes="cscsscsc" />
  <path
     style="fill:#ffffff;stroke-width:0.125"
     d="m 5.6808261,40.864159 c 0.00417,-4.743515 0.038011,-4.954995 0.890221,-5.56251 l 0.4208852,-0.300036 6.2373027,-0.09239 c 4.475722,-0.0663 6.287362,-0.133912 6.414548,-0.239418 0.09749,-0.08087 0.271804,-0.319856 0.387377,-0.531087 0.185171,-0.338434 0.217767,-1.054909 0.274398,-6.031415 0.0624,-5.483559 0.07185,-5.657584 0.325841,-5.999925 0.143865,-0.193911 0.433845,-0.469847 0.644401,-0.61319 0.370937,-0.252529 0.573357,-0.263084 6.517616,-0.339803 4.571752,-0.059 6.198536,-0.118968 6.384989,-0.23535 0.13761,-0.0859 0.349093,-0.382259 0.469962,-0.658587 0.195642,-0.447269 0.226895,-1.127309 0.284733,-6.195649 0.05981,-5.2407042 0.08314,-5.7209276 0.293524,-6.0416237 0.439742,-0.670308 0.718281,-0.7100117 5.692831,-0.8114698 2.518398,-0.051364 4.603349,-0.074448 4.633224,-0.051298 0.02988,0.02315 0.07753,8.5348365 0.105909,18.9148585 l 0.05159,18.872767 -18.610268,-0.0037 c -10.235648,-0.0021 -19.2430895,0.03254 -20.0165373,0.07693 l -1.4062686,0.08071 z"
     id="path2828" />
  <path
     style="fill:#ffffff;stroke-width:0.125"
     d="M 2.8570262,48.32844 C 2.3770093,48.114945 1.8222635,47.349295 1.7401366,46.786927 1.6970412,46.491829 1.6798736,43.466013 1.7019865,40.062893 l 0.040205,-6.187491 0.3327144,-0.709317 C 2.519858,32.217489 3.3036608,31.393872 4.1626726,30.972269 l 0.7052682,-0.346146 5.7148742,-0.03579 5.714874,-0.03579 0.03635,-5.275386 0.03635,-5.275385 0.331157,-0.705919 c 0.421719,-0.898965 1.189332,-1.666224 2.088491,-2.087528 l 0.706072,-0.330833 5.718758,-0.0358 5.718759,-0.0358 0.0011,-4.967869 c 0.0013,-5.5683311 0.04742,-5.9645893 0.827264,-7.1049387 0.518488,-0.7581754 1.505005,-1.4719181 2.299757,-1.6638684 0.379761,-0.091721 2.755654,-0.1235596 7.312523,-0.097994 7.634883,0.042835 7.299253,-0.00213 7.572752,1.0145035 0.154216,0.5732365 0.08378,40.4782566 -0.07263,41.1485406 -0.254225,1.08946 -1.18341,2.242732 -2.292742,2.845666 l -0.592833,0.322211 -21.437516,0.06926 C 11.710892,48.414884 3.0108467,48.396853 2.8570262,48.32844 Z m 23.4175178,-3.259882 19.562537,0.0045 -0.0558,-19.001044 C 45.750589,15.62145 45.702508,7.0540049 45.674434,7.0332575 c -0.02808,-0.020748 -2.132305,0.00624 -4.676068,0.05998 -5.159085,0.1089842 -5.507704,0.1617837 -5.909119,0.8949564 -0.192954,0.3524247 -0.223033,0.9991665 -0.279975,6.0198301 -0.06176,5.445385 -0.07249,5.643792 -0.336091,6.214009 -0.188023,0.40673 -0.368655,0.613186 -0.583656,0.667095 -0.17125,0.04294 -3.040049,0.114688 -6.37511,0.159443 -5.862028,0.07867 -6.075226,0.08995 -6.408851,0.339018 -0.189808,0.141704 -0.461117,0.412838 -0.602908,0.602519 -0.249007,0.333106 -0.260119,0.53757 -0.325652,5.992201 -0.04447,3.701311 -0.115377,5.755001 -0.205778,5.959795 -0.07586,0.171858 -0.25227,0.4154 -0.392019,0.541204 -0.236619,0.213008 -0.669489,0.233124 -6.295663,0.292569 -6.7797839,0.07163 -6.722769,0.06392 -7.3542892,0.995487 l -0.3126063,0.461133 -0.038247,4.495947 -0.038247,4.495949 0.5859258,-0.08017 c 0.3222592,-0.04409 9.3890677,-0.07814 20.1484637,-0.07566 z"
     id="path2867" />
</svg>
