<?xml version="1.0" encoding="UTF-8" standalone="no"?>
<svg
   viewBox="0 0 75 75"
   height="75"
   width="75"
   version="1.1"
   id="svg27"
   sodipodi:docname="big-lift.svg"
   inkscape:version="1.1.2 (b8e25be833, 2022-02-05)"
   xmlns:inkscape="http://www.inkscape.org/namespaces/inkscape"
   xmlns:sodipodi="http://sodipodi.sourceforge.net/DTD/sodipodi-0.dtd"
   xmlns="http://www.w3.org/2000/svg"
   xmlns:svg="http://www.w3.org/2000/svg"
   xmlns:rdf="http://www.w3.org/1999/02/22-rdf-syntax-ns#"
   xmlns:cc="http://creativecommons.org/ns#"
   xmlns:dc="http://purl.org/dc/elements/1.1/">
  <defs
     id="defs31" />
  <sodipodi:namedview
     id="namedview29"
     pagecolor="#ff9fff"
     bordercolor="#999999"
     borderopacity="1"
     inkscape:pageshadow="0"
     inkscape:pageopacity="0"
     inkscape:pagecheckerboard="0"
     showgrid="false"
     inkscape:zoom="7.5176616"
     inkscape:cx="17.625162"
     inkscape:cy="31.658781"
     inkscape:window-width="1920"
     inkscape:window-height="1017"
     inkscape:window-x="-8"
     inkscape:window-y="-8"
     inkscape:window-maximized="1"
     inkscape:current-layer="layer4"
     fit-margin-top="0"
     fit-margin-left="0"
     fit-margin-right="0"
     fit-margin-bottom="0">
    <inkscape:grid
       type="xygrid"
       id="grid213"
       originx="-1.5736656"
       originy="10.625644" />
  </sodipodi:namedview>
  <title
     id="title21">toilet.svg</title>
  <metadata
     id="metadata113">
    <rdf:RDF>
      <cc:Work
         rdf:about="">
        <dc:title>toilet.svg</dc:title>
      </cc:Work>
    </rdf:RDF>
  </metadata>
  <g
     inkscape:groupmode="layer"
     id="layer4"
     inkscape:label="Layer 2">
    <rect
       style="display:inline;fill:#4e0075;fill-opacity:1;stroke-width:0.545673"
       id="rect171"
       width="74.964493"
       height="74.737198"
       x="-0.017588267"
       y="0.11481329"
       ry="14.75079" />
  </g>
  <g
     inkscape:groupmode="layer"
     id="layer3"
     inkscape:label="Layer 1"
     sodipodi:insensitive="true">
    <path
       fill="#000000"
       d="m 31.799172,39.007481 c -1.431475,0 -2.592,-1.160524 -2.592,-2.592 0,-1.431475 1.160525,-2.592 2.592,-2.592 1.431476,0 2.592,1.160525 2.592,2.592 0,1.431476 -1.160524,2.592 -2.592,2.592 z m 16.416,-2.592 c 0,-1.431475 -1.160524,-2.592 -2.592,-2.592 -1.431475,0 -2.592,1.160525 -2.592,2.592 0,1.431476 1.160525,2.592 2.592,2.592 1.431476,0 2.592,-1.160524 2.592,-2.592 z m -8.88192,8.88192 v 0 l -4.28544,-4.30272 v 0 c 0,0 -0.411264,-0.268012 -0.65664,-0.2592 h -5.184 c -0.225158,5.19e-4 -0.6048,0.24192 -0.6048,0.24192 v 0 l -4.33728,4.30272 c -0.3907,0.305856 -0.459475,0.87074 -0.153619,1.26144 0.305856,0.390701 0.870739,0.459476 1.26144,0.15362 0.05719,-0.04476 0.108864,-0.09642 0.153619,-0.15362 l 3.68064,-3.73248 -3.456,10.0224 h 3.456 v 5.75424 c -0.01296,0.08588 -0.01296,0.173319 0,0.2592 0.0959,0.477101 0.560564,0.78624 1.037664,0.690336 0.348192,-0.06998 0.690336,-0.690336 0.690336,-0.690336 v 0 -6.01344 h 1.728 v 6.048 0 c 0,0 0.560564,0.78624 1.037664,0.690336 0.348192,-0.06998 0.620352,-0.342144 0.690336,-0.690336 0.01296,-0.08588 0.01296,-0.173318 0,-0.2592 v -5.7888 h 3.456 l -3.456,-10.0224 3.69792,3.73248 v 0 c 0,0 0.405908,0.29376 0.65664,0.29376 0.475892,-0.03664 0.839981,-0.438739 0.82944,-0.91584 0.0041,-0.231033 -0.24192,-0.62208 -0.24192,-0.62208 z m 9.74592,-4.56192 h -6.912 c -0.4771,0 -0.864,0.3869 -0.864,0.864 v 8.64 c 0,0.477101 0.3869,0.864 0.864,0.864 0.477101,0 0.864,-0.386899 0.864,-0.864 v 8.64 c 0,0.477101 0.3869,0.864 0.864,0.864 0.477101,0 0.864,-0.386899 0.864,-0.864 v -8.64 h 1.728 v 8.64 c 0,0.477101 0.3869,0.864 0.864,0.864 0.477101,0 0.864,-0.386899 0.864,-0.864 v -8.64 c 0,0.477101 0.3869,0.864 0.864,0.864 0.477101,0 0.864,-0.386899 0.864,-0.864 v -8.64 c 0,-0.4771 -0.386899,-0.864 -0.864,-0.864 z"
       id="path25"
       sodipodi:nodetypes="sssssssssssccsccsccsccccccccsccccscccccccsccsssssscsssccssscssss"
       style="stroke-width:1.728" />
    <rect
       fill="none"
       x="-22.34668"
       y="-36.981842"
       width="22.1616"
       height="22.1616"
       id="rect117-9"
       transform="matrix(0,-1,-1,0,0,0)"
       style="stroke-width:1.1664" />
    <path
       fill="#000000"
       d="m 34.854584,10.341054 c 0.455503,-0.455514 0.455503,-1.194032 0,-1.6495463 l -5.2488,-5.2487882 c -0.455513,-0.4554792 -1.194032,-0.4554792 -1.649546,0 L 22.70745,8.6915077 c -0.455479,0.4555143 -0.455479,1.1940323 0,1.6495463 0.455478,0.455502 1.194044,0.455502 1.649523,0 L 27.614612,7.1834809 V 18.264281 c 0,0.644185 0.522219,1.1664 1.1664,1.1664 0.644179,0 1.1664,-0.522215 1.1664,-1.1664 V 7.1834809 l 3.257626,3.1575731 c 0.455514,0.455502 1.194033,0.455502 1.649546,0 z"
       id="path119-3"
       style="stroke-width:1.1664" />
    <path
       fill="#000000"
       d="M 56.414612,27.343481 V 65.839139 H 17.918954 V 27.343481 h 38.495658 m 1.110451,-4.811958 H 16.808502 c -2.044342,0 -3.701506,1.657164 -3.701506,3.701506 v 40.716562 c 0,2.044342 1.657164,3.701505 3.701506,3.701505 h 40.716561 c 2.044341,0 3.701505,-1.657163 3.701505,-3.701505 V 26.233029 c 0,-2.044342 -1.657164,-3.701506 -3.701505,-3.701506 z"
       id="path3270"
       style="stroke-width:3.70151" />
    <rect
       fill="none"
       x="0.18507797"
       y="-60.569042"
       width="22.1616"
       height="22.1616"
       id="rect117-9-2"
       transform="rotate(90)"
       style="stroke-width:1.1664" />
    <path
       fill="#000000"
       d="m 50.694584,12.665908 c 0.455503,0.455514 0.455503,1.194032 0,1.649546 l -5.2488,5.248788 c -0.455513,0.455479 -1.194032,0.455479 -1.649546,0 l -5.248789,-5.248788 c -0.455479,-0.455514 -0.455479,-1.194032 0,-1.649546 0.455479,-0.455502 1.194045,-0.455502 1.649524,0 l 3.257639,3.157573 V 4.7426811 c 0,-0.6441854 0.522219,-1.1664 1.1664,-1.1664 0.644179,0 1.1664,0.5222146 1.1664,1.1664 V 15.823481 l 3.257626,-3.157573 c 0.455514,-0.455502 1.194033,-0.455502 1.649546,0 z"
       id="path119-3-4"
       style="stroke-width:1.1664" />
    <path
       style="fill:#ffffff;stroke-width:0.0957744"
       d="m 29.542995,59.27627 -0.268722,-0.231039 -0.02771,-3.121068 -0.02771,-3.121065 H 27.54657 c -0.919758,0 -1.672286,-0.03737 -1.672286,-0.08304 0,-0.04567 0.755392,-2.272521 1.678648,-4.948548 0.923256,-2.676025 1.664916,-4.906693 1.648134,-4.957038 -0.01678,-0.05034 -0.890693,0.793637 -1.942028,1.875515 -1.051332,1.081878 -2.028092,2.019894 -2.170578,2.08448 -0.500024,0.226655 -1.129665,-0.264798 -1.129665,-0.881736 0,-0.293692 4.390236,-4.721138 4.932384,-4.974191 0.343718,-0.160433 0.643989,-0.178814 2.921121,-0.178814 2.28118,0 2.576792,0.01817 2.921122,0.179511 0.512863,0.240316 4.489955,4.239 4.684562,4.709997 0.128477,0.310941 0.12649,0.37602 -0.02042,0.669393 -0.204864,0.409088 -0.56141,0.546977 -0.973243,0.37639 -0.170021,-0.07043 -1.103946,-0.958126 -2.13995,-2.034035 -1.011048,-1.04999 -1.849758,-1.851854 -1.863803,-1.781919 -0.01411,0.06994 0.702437,2.238982 1.592178,4.820104 0.889742,2.581121 1.647588,4.78992 1.684099,4.908442 l 0.06638,0.215491 H 36.03284 34.302447 v 3.153606 3.153606 l -0.252353,0.198497 c -0.364423,0.286655 -0.649266,0.248242 -1.037411,-0.139896 l -0.338415,-0.33841 v -3.013701 -3.013704 h -0.90986 -0.909856 v 3.072149 3.072151 l -0.279956,0.279955 c -0.342388,0.342389 -0.672082,0.358024 -1.031601,0.04891 z"
       id="path3735" />
    <path
       style="fill:#ffffff;stroke-width:0.0957744"
       d="m 30.684056,38.668917 c -0.889637,-0.443324 -1.397237,-1.25958 -1.394997,-2.243252 0.0017,-0.732407 0.16965,-1.173401 0.649138,-1.704136 1.19399,-1.321606 3.31997,-1.024243 4.117352,0.575894 0.480613,0.964463 0.289144,2.133116 -0.474618,2.896876 -0.763761,0.763762 -1.932411,0.955231 -2.896875,0.474618 z"
       id="path3774" />
    <path
       style="fill:#ffffff;stroke-width:0.0957744"
       d="m 44.588504,38.733214 c -0.88184,-0.400479 -1.398087,-1.202201 -1.455052,-2.259662 -0.03191,-0.592438 -0.0041,-0.731491 0.239531,-1.195431 0.848789,-1.61664 2.943975,-1.871721 4.147105,-0.504894 1.135303,1.289774 0.688453,3.234778 -0.910637,3.96373 -0.515894,0.235172 -1.498875,0.233352 -2.020947,-0.0037 z"
       id="path3813" />
    <path
       style="fill:#ffffff;stroke-width:0.0957744"
       d="m 43.472837,59.548304 c -0.144858,-0.07858 -0.273108,-0.152284 -0.284996,-0.163771 -0.012,-0.01152 -0.04421,-2.089613 -0.07183,-4.618059 -0.04364,-3.995409 -0.06725,-4.556049 -0.180316,-4.282998 -0.125798,0.303785 -0.525428,0.59568 -0.815538,0.59568 -0.07759,0 -0.273672,-0.111576 -0.43574,-0.247949 L 41.38975,50.583256 v -4.667739 -4.66774 l 0.247029,-0.232187 0.247027,-0.232187 3.485364,-0.02839 c 2.289855,-0.01865 3.617517,0.0072 3.870634,0.07536 0.686482,0.18485 0.673873,0.09006 0.673873,5.065985 0,2.636057 -0.03757,4.502979 -0.0936,4.65033 -0.05171,0.135994 -0.247497,0.319572 -0.437442,0.410149 -0.308525,0.147126 -0.370231,0.149333 -0.600767,0.02148 -0.141307,-0.07836 -0.332278,-0.292447 -0.424378,-0.475744 -0.161852,-0.322112 -0.167511,-0.185756 -0.169018,4.072354 -0.0012,3.331331 -0.03074,4.463306 -0.121248,4.642166 -0.266329,0.526338 -0.904859,0.611652 -1.311451,0.175226 -0.189348,-0.203243 -0.1942,-0.320434 -0.1942,-4.691789 v -4.48334 h -0.909857 -0.909858 v 4.362494 c 0,3.703738 -0.02184,4.404733 -0.144652,4.642223 -0.246142,0.475985 -0.638618,0.589919 -1.12436,0.326399 z"
       id="path3852" />
    <path
       style="fill:#ffffff;stroke-width:0.0957744"
       d="m 15.961624,70.482739 c -1.398206,-0.348035 -2.429957,-1.437785 -2.729073,-2.882487 -0.06704,-0.323779 -0.09093,-7.225395 -0.07377,-21.309818 l 0.02538,-20.830945 0.223613,-0.554015 c 0.289917,-0.718289 1.08441,-1.579189 1.764855,-1.912371 0.285372,-0.139737 0.795132,-0.298886 1.132797,-0.353674 0.857317,-0.139104 40.888259,-0.138269 41.745851,8.65e-4 1.584424,0.257064 2.792882,1.466647 3.066436,3.069294 0.07379,0.432287 0.09636,6.683565 0.07696,21.299154 l -0.02749,20.687285 -0.230678,0.574646 c -0.318738,0.794018 -1.27389,1.74917 -2.06791,2.06791 L 58.293948,70.56926 37.367228,70.5856 C 20.950042,70.59842 16.337314,70.576244 15.961634,70.482745 Z M 56.426334,46.625644 V 27.327089 H 37.12778 17.829226 v 19.234706 c 0,10.579088 0.02873,19.263436 0.06385,19.298554 0.03512,0.03512 8.719465,0.06385 19.298553,0.06385 h 19.234705 z"
       id="path3891" />
    <path
       style="fill:#ffffff;stroke-width:0.0957744"
       d="m 44.21509,19.763231 c -0.355549,-0.150924 -5.873101,-5.779377 -5.942476,-6.061917 -0.08447,-0.344041 0.09864,-0.77751 0.455214,-1.077543 0.292595,-0.246203 0.667436,-0.300288 1.051458,-0.151712 0.121954,0.04718 0.98275,0.822955 1.912889,1.72394 0.930138,0.900985 1.716685,1.638155 1.747883,1.638155 0.03119,0 0.05672,-2.544952 0.05672,-5.655449 0,-6.0956888 -0.0072,-6.0033933 0.499636,-6.3584317 0.117372,-0.082211 0.402069,-0.1494756 0.632658,-0.1494756 0.349098,0 0.473742,0.05449 0.744886,0.3256331 l 0.325634,0.3256333 v 5.7560449 c 0,3.165825 0.03434,5.756045 0.07632,5.756045 0.04198,0 0.828528,-0.725606 1.747882,-1.612459 0.919358,-0.886853 1.765696,-1.662626 1.880754,-1.72394 0.866584,-0.461803 1.902576,0.570194 1.456767,1.45115 -0.150804,0.298003 -5.444221,5.605094 -5.755565,5.770434 -0.286356,0.15207 -0.599474,0.1675 -0.890671,0.0439 z"
       id="path3930" />
    <path
       style="fill:#ffffff;stroke-width:0.0957744"
       d="m 28.245902,19.227886 c -0.56306,-0.305512 -0.551907,-0.176081 -0.551907,-6.405871 0,-3.136835 -0.02885,-5.7033366 -0.0641,-5.7033366 -0.03526,0 -0.801144,0.7264547 -1.701967,1.6143437 -1.843537,1.8170619 -2.109944,2.0035279 -2.6369,1.8456489 -0.551797,-0.165324 -0.816736,-0.513927 -0.816736,-1.074652 V 9.031557 L 25.39863,6.1117411 28.32297,3.1919255 h 0.471967 0.471967 l 2.855886,2.8492902 c 3.155592,3.1483023 3.21956,3.2351213 2.886367,3.9173983 -0.223529,0.457725 -0.757262,0.749909 -1.194452,0.653886 -0.209809,-0.04608 -0.821361,-0.569755 -2.083493,-1.7841081 l -1.786513,-1.7188804 -0.04788,5.7749945 c -0.05186,6.255777 -0.02954,6.012407 -0.581553,6.338485 -0.322964,0.190781 -0.723387,0.192613 -1.069353,0.0049 z"
       id="path3969" />
  </g>
</svg>
