<?xml version="1.0" encoding="UTF-8" standalone="no"?>
<svg
   viewBox="0 0 50 50"
   height="50"
   width="50"
   version="1.1"
   id="svg18209"
   sodipodi:docname="big-stairs-filled-2.svg"
   inkscape:version="1.1.2 (b8e25be833, 2022-02-05)"
   xmlns:inkscape="http://www.inkscape.org/namespaces/inkscape"
   xmlns:sodipodi="http://sodipodi.sourceforge.net/DTD/sodipodi-0.dtd"
   xmlns="http://www.w3.org/2000/svg"
   xmlns:svg="http://www.w3.org/2000/svg"
   xmlns:rdf="http://www.w3.org/1999/02/22-rdf-syntax-ns#"
   xmlns:cc="http://creativecommons.org/ns#"
   xmlns:dc="http://purl.org/dc/elements/1.1/">
  <defs
     id="defs18213" />
  <sodipodi:namedview
     id="namedview18211"
     pagecolor="#ffffff"
     bordercolor="#999999"
     borderopacity="1"
     inkscape:pageshadow="0"
     inkscape:pageopacity="0"
     inkscape:pagecheckerboard="0"
     showgrid="false"
     inkscape:zoom="11.313708"
     inkscape:cx="24.439379"
     inkscape:cy="20.152544"
     inkscape:window-width="1920"
     inkscape:window-height="1017"
     inkscape:window-x="-8"
     inkscape:window-y="-8"
     inkscape:window-maximized="1"
     inkscape:current-layer="layer9"
     width="50px">
    <inkscape:grid
       type="xygrid"
       id="grid27904" />
  </sodipodi:namedview>
  <title
     id="title18203">entrance-alt1.svg</title>
  <metadata
     id="metadata18215">
    <rdf:RDF>
      <cc:Work
         rdf:about="">
        <dc:title>entrance-alt1.svg</dc:title>
      </cc:Work>
    </rdf:RDF>
  </metadata>
  <g
     inkscape:groupmode="layer"
     id="layer8"
     inkscape:label="Layer 1"
     sodipodi:insensitive="true">
    <rect
       style="display:inline;fill:#4e0075;fill-opacity:1;stroke-width:0.363582"
       id="rect171"
       width="49.855251"
       height="49.891018"
       x="0.080915689"
       y="0.068395302"
       ry="9.8469305" />
  </g>
  <g
     inkscape:groupmode="layer"
     id="layer9"
     inkscape:label="Layer 2">
    <path
       fill="#000000"
       d="m 9.0056536,35.550153 c -0.7006846,0 -1.2687024,0.616837 -1.2687024,1.377744 v 5.957468 c 0,1.836979 -2.5374058,1.836991 -2.5374058,0 v -7.335212 c 0,-1.521813 1.1969228,-2.755487 2.5982937,-2.755487 1.2436109,0.04716 7.5393699,-0.06972 8.2881999,0.08074 1.239261,0.249041 1.127984,2.616074 0.233883,2.619427 0,0 -6.6100113,0.0777 -7.3142684,0.05532 z"
       id="path18207"
       sodipodi:nodetypes="csssscsscc"
       style="fill:#000000;stroke-width:2.75549" />
    <path
       d="m 18.277971,26.799015 c -0.700684,0 -1.268701,0.616837 -1.268701,1.377743 v 5.95747 c 0,1.836978 -2.537405,1.836989 -2.537405,0 v -7.335213 c 0,-1.521815 1.196923,-2.755489 2.598294,-2.755489 1.243609,0.04715 7.539371,-0.06974 8.288196,0.08074 1.239263,0.24904 1.127986,2.616073 0.233889,2.619427 0,0 -6.610012,0.07771 -7.314268,0.05533 z"
       style="fill:#000000;stroke-width:2.75549"
       id="path26660"
       sodipodi:nodetypes="cssssccccc" />
    <path
       d="m 27.630283,17.937304 c -1.088337,0.06217 -1.268704,0.616837 -1.268704,1.377745 v 5.957467 c 0,1.836977 -2.537406,1.83699 -2.537406,0 v -7.335212 c 0,-1.521812 1.196924,-2.755487 2.598295,-2.755487 1.243613,0.04715 7.539371,-0.06974 8.288201,0.08074 1.239261,0.249041 1.127983,2.616073 0.233886,2.619426 0,0 -5.965848,0.08279 -7.314268,0.05533 z"
       style="fill:#000000;stroke-width:2.75549"
       id="path26660-4"
       sodipodi:nodetypes="cssssccccc" />
    <path
       style="fill:#000000;stroke-width:0.0795751"
       d="M 5.8850785,44.057235 C 5.7431105,43.98725 5.5461626,43.800068 5.4474152,43.641279 L 5.2678754,43.352572 V 39.13509 34.91761 l 0.2117024,-0.451603 c 0.2831154,-0.603941 0.7819655,-1.128373 1.328752,-1.396892 l 0.448924,-0.220459 3.6380892,-0.02362 3.638087,-0.02362 0.02237,-3.358321 0.02236,-3.358315 0.210711,-0.449438 c 0.268334,-0.572344 0.908234,-1.131852 1.329228,-1.329228 l 0.44944,-0.210713 3.640559,-0.02364 3.640563,-0.02364 0.002,-3.159374 c 0.001,-1.793951 0.03596,-3.306959 0.08069,-3.500864 0.194019,-0.841118 0.790831,-1.557328 1.465419,-1.913407 l 0.401505,-0.211932 3.938968,-0.02508 c 4.593356,-0.02924 4.994358,-0.0077 5.344563,0.286972 0.328643,0.276536 0.477643,0.658889 0.474964,1.218826 -0.0023,0.487605 -0.157847,0.892732 -0.389347,1.014282 -0.07613,0.03999 -1.91097,0.09884 -4.077402,0.130811 -3.569823,0.05267 -3.965466,0.07159 -4.221694,0.201806 -0.514662,0.261544 -0.508834,0.217539 -0.552895,4.174987 -0.03641,3.270323 -0.05276,3.610411 -0.188614,3.921394 -0.0818,0.187285 -0.223517,0.380534 -0.314904,0.429442 -0.112248,0.06008 -1.436969,0.104504 -4.082869,0.136937 -3.792805,0.04648 -3.923657,0.0532 -4.136304,0.212074 -0.120778,0.09024 -0.293425,0.262874 -0.383662,0.383637 -0.158566,0.21221 -0.165401,0.340103 -0.203854,3.814689 -0.03509,3.171956 -0.05556,3.623901 -0.173797,3.839641 -0.257761,0.470323 -0.06884,0.448537 -4.278221,0.493324 -3.7710939,0.04012 -3.9037419,0.04673 -4.1912937,0.20882 -0.1806368,0.101822 -0.3694178,0.304756 -0.4819639,0.518094 -0.1849579,0.350607 -0.185014,0.351702 -0.1867607,3.660456 -0.00162,3.054612 -0.013157,3.334868 -0.1497541,3.635643 -0.2731256,0.601399 -1.0309407,0.847213 -1.6583368,0.537919 z"
       id="path201"
       sodipodi:nodetypes="cscccsscccccsscccccscsscsscsssssscsssssscc" />
    <path
       d="m 33.253946,14.679636 0.002,-3.159375 c 10e-4,-1.7939495 0.03596,-3.3069584 0.08069,-3.5008624 0.194019,-0.8411186 2.460585,-2.6676844 1.46542,-1.9134073 l 0.401505,-0.2119316 3.938968,-0.025077 c 4.593355,-0.029244 4.994358,-0.00773 5.344562,0.2869722 0.328643,0.2765347 0.477643,0.6588886 0.474964,1.2188249 -0.0023,0.4876061 -0.157846,0.8927314 -0.389348,1.0142825 -0.07613,0.039979 -1.910969,0.098841 -4.077401,0.1308107 -3.569823,0.052673 -3.965465,0.071592 -4.221693,0.2018054 -0.514662,0.2615447 -0.508834,0.2175402 -0.552896,4.1749876 -0.03641,3.270324 -0.05277,3.610411 -0.188613,3.921395 -0.0818,0.187284 -0.223517,0.380534 -0.314905,0.429442 m -0.453548,-2.491721 c 1.239261,0.24904 1.127984,2.616073 0.233886,2.619426 m 2.038041,-8.8063894 c -1.088337,0.06217 -1.266826,0.6168394 -1.268703,1.3777441 l -0.01473,5.9722023 c -0.0046,1.836973 -2.522671,1.822254 -2.522671,-0.01473 V 8.5688183 c 0,-1.521813 1.196924,-2.7554871 2.598297,-2.7554871 1.243612,0.047147 7.539371,-0.069743 8.288199,0.080739 1.239262,0.2490411 1.127984,2.6160733 0.233887,2.6194262 0,0 -5.965848,0.082796 -7.314267,0.055332 z"
       style="fill:#000000;stroke-width:2.75549"
       id="path3383"
       sodipodi:nodetypes="cccccsccscsccccccsssscsccc" />
    <path
       style="fill:#000000;stroke-width:0.107171"
       d="M 5.75803,43.958567 C 5.2491471,43.55828 5.2351207,43.415095 5.2688031,38.964485 5.2993969,34.921942 5.3076144,34.778364 5.532128,34.363052 5.8053203,33.857695 6.33077,33.340746 6.8543749,33.062195 7.1953993,32.880775 7.5629452,32.859736 10.900114,32.830622 l 3.670636,-0.03202 v -3.320538 c 0,-3.579758 0.01245,-3.672966 0.592683,-4.433677 0.155178,-0.203449 0.528821,-0.492831 0.830318,-0.643074 l 0.548178,-0.273168 h 3.676386 3.676388 l 6.43e-4,-3.295536 c 3.22e-4,-1.9395 0.04621,-3.459791 0.111462,-3.694722 0.175111,-0.630523 0.733905,-1.281853 1.381507,-1.610285 l 0.581089,-0.294725 h 3.678211 3.678213 V 11.58559 c 0,-3.9279847 0.0081,-3.9940581 0.585804,-4.7514062 0.151393,-0.1984869 0.520018,-0.48787 0.819166,-0.6430734 l 0.543904,-0.2821907 h 4.42952 4.42952 l 0.327715,0.2757534 c 0.545462,0.4589771 0.677902,1.4683924 0.26614,2.0284418 -0.151437,0.2059742 -0.315393,0.2165192 -4.198894,0.2700561 -4.254136,0.058646 -4.377662,0.073593 -4.652904,0.5629822 -0.09698,0.1724429 -0.152205,1.3093898 -0.198982,4.0968678 -0.06409,3.819026 -0.107011,4.249002 -0.452862,4.536032 -0.118161,0.09807 -1.201832,0.150252 -4.110487,0.197948 -4.007859,0.06572 -4.362999,0.103436 -4.613052,0.489887 -0.04794,0.07411 -0.112205,1.774456 -0.1428,3.778571 -0.04711,3.086056 -0.08294,3.70478 -0.234075,4.041924 -0.112527,0.251025 -0.270135,0.417799 -0.426646,0.451462 -0.13651,0.02936 -1.939019,0.06773 -4.005576,0.08528 -3.367721,0.02859 -3.787124,0.05138 -4.044245,0.219854 -0.641253,0.420166 -0.641329,0.420628 -0.689232,4.237778 -0.02707,2.157037 -0.08875,3.619515 -0.160545,3.806559 -0.06413,0.167054 -0.23276,0.347907 -0.374754,0.401893 -0.141992,0.05399 -1.896308,0.09816 -3.898478,0.09816 -4.0359591,0 -4.2057167,0.0245 -4.5952241,0.663375 C 7.7242953,36.487236 7.7125293,36.685628 7.7121504,39.805477 7.7117217,43.375569 7.676152,43.63578 7.1406969,43.986624 6.7618122,44.234878 6.0920185,44.221293 5.75803,43.95858 Z"
       id="path4000" />
    <rect
       style="fill:#000000;stroke-width:0.859844"
       id="rect4133"
       width="39.666595"
       height="2.572125"
       x="5.4140553"
       y="42.162827"
       ry="1.2860625" />
    <rect
       style="fill:#000000;stroke-width:0.839305"
       id="rect4133-2"
       width="37.794289"
       height="2.572125"
       x="-44.347355"
       y="42.508892"
       ry="1.2860625"
       transform="rotate(-90)" />
    <path
       style="fill:#ffffff;stroke-width:0.075782"
       d="M 6.2380014,44.573207 C 5.8473732,44.39292 5.6522366,44.170899 5.4314121,43.655491 L 5.2528358,43.238689 V 39.108573 34.978456 L 5.4286954,34.542962 C 5.6608713,33.968009 6.2437101,33.337551 6.7919558,33.06832 l 0.431211,-0.21176 3.6535402,-0.02233 3.653541,-0.02233 0.02189,-3.387851 c 0.0213,-3.297117 0.0263,-3.397426 0.187032,-3.745332 0.243114,-0.52624 0.819598,-1.106203 1.350491,-1.358639 l 0.45469,-0.216202 3.656481,-5.9e-5 3.65648,-6e-5 v -3.250645 c 0,-3.042437 0.0097,-3.28149 0.151912,-3.732261 0.184988,-0.58648 0.558452,-1.109478 1.018069,-1.425704 0.671958,-0.462319 0.627435,-0.457884 4.595575,-0.457884 h 3.624608 l 0.02234,-3.658246 0.02234,-3.6582472 0.248119,-0.5038264 c 0.2512,-0.5100835 0.970868,-1.2735142 1.200513,-1.2735142 0.06062,0 0.201264,-0.059679 0.312527,-0.1326184 0.184748,-0.1211142 0.535387,-0.134542 4.042111,-0.154793 2.1119,-0.012196 4.153414,0.00928 4.536702,0.047726 0.607297,0.060915 0.72499,0.09683 0.915535,0.279383 0.120259,0.1152155 0.279863,0.3665541 0.354674,0.5585301 0.129316,0.331835 0.136883,1.2440468 0.153449,18.4988261 0.01033,10.755765 -0.01077,18.270882 -0.0518,18.447043 -0.09529,0.409164 -0.294182,0.657641 -0.687097,0.858411 l -0.333695,0.17051 -18.721032,-0.0016 C 7.2232051,44.71317 6.530085,44.708012 6.2380014,44.573207 Z M 42.575451,25.343946 V 8.4722581 l -3.012333,0.053722 c -3.356671,0.059863 -3.415975,0.069191 -3.675307,0.5781373 -0.118315,0.2321969 -0.132725,0.5358841 -0.134595,2.8366226 -0.0023,2.725692 -0.08688,4.647093 -0.229762,5.214539 -0.0475,0.188633 -0.171012,0.422504 -0.274473,0.519713 l -0.188112,0.176741 -3.915632,0.04264 c -4.284046,0.04665 -4.317933,0.0503 -4.610722,0.497089 -0.127429,0.194453 -0.142037,0.493613 -0.182558,3.738592 -0.03743,2.996958 -0.06295,3.585168 -0.169755,3.912651 -0.233369,0.715519 0.09538,0.661903 -4.355702,0.710387 -4.33562,0.04722 -4.204818,0.03157 -4.572052,0.547302 -0.230978,0.324379 -0.28116,1.125869 -0.288011,4.600104 -0.0036,1.824934 -0.03383,2.776696 -0.09461,2.979591 -0.177054,0.590948 0.03906,0.560055 -4.306169,0.615563 -4.3448265,0.0555 -4.235929,0.04117 -4.6103816,0.606779 l -0.2016379,0.304574 -0.021522,2.904315 -0.021522,2.904317 H 25.143025 42.575452 Z"
       id="path4425" />
  </g>
</svg>
