<?xml version="1.0" encoding="UTF-8" standalone="no"?>
<svg
   viewBox="0 0 75 75"
   height="75"
   width="75"
   version="1.1"
   id="svg27"
   sodipodi:docname="big-accessible-lift.svg"
   inkscape:version="1.1.2 (b8e25be833, 2022-02-05)"
   xmlns:inkscape="http://www.inkscape.org/namespaces/inkscape"
   xmlns:sodipodi="http://sodipodi.sourceforge.net/DTD/sodipodi-0.dtd"
   xmlns="http://www.w3.org/2000/svg"
   xmlns:svg="http://www.w3.org/2000/svg"
   xmlns:rdf="http://www.w3.org/1999/02/22-rdf-syntax-ns#"
   xmlns:cc="http://creativecommons.org/ns#"
   xmlns:dc="http://purl.org/dc/elements/1.1/">
  <defs
     id="defs31" />
  <sodipodi:namedview
     id="namedview29"
     pagecolor="#ffa1ff"
     bordercolor="#999999"
     borderopacity="1"
     inkscape:pageshadow="0"
     inkscape:pageopacity="0"
     inkscape:pagecheckerboard="0"
     showgrid="false"
     inkscape:zoom="10.631579"
     inkscape:cx="38.04703"
     inkscape:cy="31.039604"
     inkscape:window-width="1920"
     inkscape:window-height="1017"
     inkscape:window-x="-8"
     inkscape:window-y="-8"
     inkscape:window-maximized="1"
     inkscape:current-layer="layer3"
     fit-margin-top="0"
     fit-margin-left="0"
     fit-margin-right="0"
     fit-margin-bottom="0">
    <inkscape:grid
       type="xygrid"
       id="grid213"
       originx="-1.5736656"
       originy="10.625644" />
  </sodipodi:namedview>
  <title
     id="title21">toilet.svg</title>
  <metadata
     id="metadata113">
    <rdf:RDF>
      <cc:Work
         rdf:about="">
        <dc:title>toilet.svg</dc:title>
      </cc:Work>
    </rdf:RDF>
  </metadata>
  <g
     inkscape:groupmode="layer"
     id="layer3"
     inkscape:label="Layer 1">
    <rect
       style="display:inline;fill:#4e0075;fill-opacity:1;stroke-width:0.54584"
       id="rect171"
       width="74.987556"
       height="74.760178"
       x="-0.040062252"
       y="0.072279684"
       ry="14.755328" />
  </g>
  <g
     inkscape:groupmode="layer"
     id="layer4"
     inkscape:label="Layer 2">
    <rect
       fill="none"
       x="-22.34668"
       y="-36.981842"
       width="22.1616"
       height="22.1616"
       id="rect117-9"
       transform="matrix(0,-1,-1,0,0,0)"
       style="stroke-width:1.1664" />
    <path
       fill="#000000"
       d="m 34.854584,10.341054 c 0.455503,-0.455514 0.455503,-1.194032 0,-1.6495463 l -5.2488,-5.2487882 c -0.455513,-0.4554792 -1.194032,-0.4554792 -1.649546,0 L 22.70745,8.6915077 c -0.455479,0.4555143 -0.455479,1.1940323 0,1.6495463 0.455478,0.455502 1.194044,0.455502 1.649523,0 L 27.614612,7.1834809 V 18.264281 c 0,0.644185 0.522219,1.1664 1.1664,1.1664 0.644179,0 1.1664,-0.522215 1.1664,-1.1664 V 7.1834809 l 3.257626,3.1575731 c 0.455514,0.455502 1.194033,0.455502 1.649546,0 z"
       id="path119-3"
       style="stroke-width:1.1664" />
    <path
       fill="#000000"
       d="M 56.414612,27.343481 V 65.839139 H 17.918954 V 27.343481 h 38.495658 m 1.110451,-4.811958 H 16.808502 c -2.044342,0 -3.701506,1.657164 -3.701506,3.701506 v 40.716562 c 0,2.044342 1.657164,3.701505 3.701506,3.701505 h 40.716561 c 2.044341,0 3.701505,-1.657163 3.701505,-3.701505 V 26.233029 c 0,-2.044342 -1.657164,-3.701506 -3.701505,-3.701506 z"
       id="path3270"
       style="stroke-width:3.70151" />
    <rect
       fill="none"
       x="0.18507797"
       y="-60.569042"
       width="22.1616"
       height="22.1616"
       id="rect117-9-2"
       transform="rotate(90)"
       style="stroke-width:1.1664" />
    <path
       fill="#000000"
       d="m 50.694584,12.665908 c 0.455503,0.455514 0.455503,1.194032 0,1.649546 l -5.2488,5.248788 c -0.455513,0.455479 -1.194032,0.455479 -1.649546,0 l -5.248789,-5.248788 c -0.455479,-0.455514 -0.455479,-1.194032 0,-1.649546 0.455479,-0.455502 1.194045,-0.455502 1.649524,0 l 3.257639,3.157573 V 4.7426811 c 0,-0.6441854 0.522219,-1.1664 1.1664,-1.1664 0.644179,0 1.1664,0.5222146 1.1664,1.1664 V 15.823481 l 3.257626,-3.157573 c 0.455514,-0.455502 1.194033,-0.455502 1.649546,0 z"
       id="path119-3-4"
       style="stroke-width:1.1664" />
    <path
       style="fill:#ffffff;stroke-width:0.0957744"
       d="m 15.961624,70.482739 c -1.398206,-0.348035 -2.429957,-1.437785 -2.729073,-2.882487 -0.06704,-0.323779 -0.09093,-7.225395 -0.07377,-21.309818 l 0.02538,-20.830945 0.223613,-0.554015 c 0.289917,-0.718289 1.08441,-1.579189 1.764855,-1.912371 0.285372,-0.139737 0.795132,-0.298886 1.132797,-0.353674 0.857317,-0.139104 40.888259,-0.138269 41.745851,8.65e-4 1.584424,0.257064 2.792882,1.466647 3.066436,3.069294 0.07379,0.432287 0.09636,6.683565 0.07696,21.299154 l -0.02749,20.687285 -0.230678,0.574646 c -0.318738,0.794018 -1.27389,1.74917 -2.06791,2.06791 L 58.293948,70.56926 37.367228,70.5856 C 20.950042,70.59842 16.337314,70.576244 15.961634,70.482745 Z M 56.426334,46.625644 V 27.327089 H 37.12778 17.829226 v 19.234706 c 0,10.579088 0.02873,19.263436 0.06385,19.298554 0.03512,0.03512 8.719465,0.06385 19.298553,0.06385 h 19.234705 z"
       id="path3891" />
    <path
       style="fill:#ffffff;stroke-width:0.0957744"
       d="m 44.21509,19.763231 c -0.355549,-0.150924 -5.873101,-5.779377 -5.942476,-6.061917 -0.08447,-0.344041 0.09864,-0.77751 0.455214,-1.077543 0.292595,-0.246203 0.667436,-0.300288 1.051458,-0.151712 0.121954,0.04718 0.98275,0.822955 1.912889,1.72394 0.930138,0.900985 1.716685,1.638155 1.747883,1.638155 0.03119,0 0.05672,-2.544952 0.05672,-5.655449 0,-6.0956888 -0.0072,-6.0033933 0.499636,-6.3584317 0.117372,-0.082211 0.402069,-0.1494756 0.632658,-0.1494756 0.349098,0 0.473742,0.05449 0.744886,0.3256331 l 0.325634,0.3256333 v 5.7560449 c 0,3.165825 0.03434,5.756045 0.07632,5.756045 0.04198,0 0.828528,-0.725606 1.747882,-1.612459 0.919358,-0.886853 1.765696,-1.662626 1.880754,-1.72394 0.866584,-0.461803 1.902576,0.570194 1.456767,1.45115 -0.150804,0.298003 -5.444221,5.605094 -5.755565,5.770434 -0.286356,0.15207 -0.599474,0.1675 -0.890671,0.0439 z"
       id="path3930" />
    <path
       style="fill:#ffffff;stroke-width:0.0957744"
       d="m 28.245902,19.227886 c -0.56306,-0.305512 -0.551907,-0.176081 -0.551907,-6.405871 0,-3.136835 -0.02885,-5.7033366 -0.0641,-5.7033366 -0.03526,0 -0.801144,0.7264547 -1.701967,1.6143437 -1.843537,1.8170619 -2.109944,2.0035279 -2.6369,1.8456489 -0.551797,-0.165324 -0.816736,-0.513927 -0.816736,-1.074652 V 9.031557 L 25.39863,6.1117411 28.32297,3.1919255 h 0.471967 0.471967 l 2.855886,2.8492902 c 3.155592,3.1483023 3.21956,3.2351213 2.886367,3.9173983 -0.223529,0.457725 -0.757262,0.749909 -1.194452,0.653886 -0.209809,-0.04608 -0.821361,-0.569755 -2.083493,-1.7841081 l -1.786513,-1.7188804 -0.04788,5.7749945 c -0.05186,6.255777 -0.02954,6.012407 -0.581553,6.338485 -0.322964,0.190781 -0.723387,0.192613 -1.069353,0.0049 z"
       id="path3969" />
    <rect
       fill="none"
       x="21.820936"
       y="31.25363"
       width="10.097379"
       height="10.09738"
       id="rect4164"
       style="stroke-width:0.531441" />
    <path
       fill="#000000"
       d="m 35.118426,32.223564 c 0.926415,1.497604 0.497727,3.518405 -0.957447,4.513402 -1.455174,0.994998 -3.385989,0.587523 -4.312395,-0.91008 -0.926415,-1.497604 -0.497736,-3.518404 0.957447,-4.513402 1.455174,-0.994996 3.38598,-0.587523 4.312395,0.91008 z m -11.919555,13.376071 1.144188,-5.18131 4.692366,0.110048 0.098,3.148603 c 2.261457,-0.686834 4.657176,-0.636604 6.86286,0.143715 l -0.13166,-3.768714 c -0.06192,-1.027349 -0.912195,-1.791837 -1.899252,-1.707313 -0.0027,1.78e-4 -0.0036,3.53e-4 -0.0063,5.24e-4 l -1.502874,0.0758 -8.894403,-0.195212 c -0.50382,-0.01721 -0.953811,0.344761 -1.068318,0.8591 l -1.276587,6.017868 c -0.04167,0.598556 0.389385,1.109518 0.962946,1.141282 0.431037,0.02401 0.836559,-0.232442 1.01916,-0.644389 z m 16.456032,3.040321 c 1.351305,2.242248 1.655442,5.017349 0.828693,7.562437 -0.601281,1.90421 -1.808919,3.547484 -3.420171,4.653835 -3.941667,2.695166 -9.170739,1.598705 -11.689794,-2.451273 -1.028268,-1.671567 -1.463076,-3.673558 -1.230822,-5.66681 0.06867,-0.643782 0.203499,-1.279268 0.402129,-1.89563 0.597078,-1.916255 1.807605,-3.571022 3.426561,-4.683922 3.947814,-2.685222 9.174006,-1.575221 11.683404,2.481363 z m -2.321325,4.854297 c 0.225108,-2.739015 -1.719585,-5.106491 -4.343562,-5.28773 -2.143341,-0.14818 -4.144482,1.22012 -4.884966,3.34016 -0.290844,0.587311 -0.429543,1.241152 -0.402138,1.895629 -0.03249,2.744929 2.075949,4.95441 4.709358,4.934719 1.894698,-0.01425 3.623562,-1.196295 4.404186,-3.011417 0.257184,-0.596457 0.431271,-1.226643 0.517122,-1.871361 z M 52.590099,57.319334 46.825221,47.187145 C 46.544367,46.605429 45.92937,46.27261 45.275754,46.348741 l -5.276421,0.485402 c 0.742527,0.907952 1.33506,1.93249 1.757016,3.037122 l 2.669985,-0.245621 5.300055,9.279302 c 0.428436,0.75558 1.401543,0.990637 2.173446,0.525104 0.771912,-0.465524 1.050246,-1.455454 0.62181,-2.211031 z"
       id="path4166"
       sodipodi:nodetypes="sssssccccccccccccccccccccccccccccccccccccscc"
       style="stroke-width:2.12576" />
    <path
       style="fill:#ffffff;stroke-width:0.0579916"
       d="m 30.984456,62.184164 c -3.838554,-0.684915 -6.675291,-4.005879 -6.855444,-8.025635 -0.05283,-1.18057 0.124713,-2.3526 0.535311,-3.532206 1.147329,-3.296215 3.923154,-5.52962 7.291143,-5.866416 1.781955,-0.178195 3.769848,0.349765 5.30847,1.409863 0.922374,0.635514 1.926846,1.734511 2.49849,2.733611 0.831807,1.453825 1.274985,3.502839 1.112292,5.142728 -0.284013,2.86276 -1.571076,5.156763 -3.779208,6.73589 -0.92331,0.660304 -2.26188,1.211304 -3.410172,1.403744 -0.678366,0.113685 -2.059434,0.112878 -2.700882,-0.0016 z m 2.686671,-3.962356 c 1.392993,-0.402444 2.596635,-1.482557 3.170889,-2.845456 0.721656,-1.712755 0.710325,-3.121248 -0.03726,-4.637627 -0.261981,-0.531343 -0.368937,-0.677093 -0.856143,-1.166509 -0.923049,-0.927243 -1.792683,-1.318323 -3.050406,-1.371763 -1.058301,-0.04497 -1.79811,0.143036 -2.721465,0.69159 -0.478089,0.284029 -1.193778,0.978225 -1.520325,1.474686 -0.279297,0.424609 -0.729414,1.432966 -0.868005,1.944531 -0.14868,0.548749 -0.13563,1.719853 0.02655,2.38667 0.445833,1.832685 1.81143,3.207052 3.57894,3.601931 0.565767,0.126397 1.704654,0.08736 2.277216,-0.07805 z"
       id="path2295" />
    <path
       style="fill:#ffffff;stroke-width:0.0579916"
       d="m 50.808513,59.60425 c -0.313911,-0.05809 -0.648252,-0.232526 -0.840708,-0.438636 -0.0846,-0.09063 -1.357911,-2.277478 -2.829483,-4.859659 -1.471581,-2.582179 -2.681046,-4.69938 -2.687715,-4.70489 -0.0063,-0.0055 -0.507933,0.03828 -1.113948,0.09732 -0.606006,0.05903 -1.207269,0.108113 -1.336113,0.109057 l -0.23427,0.0017 -0.215613,-0.509183 c -0.249417,-0.589038 -0.817605,-1.56534 -1.214577,-2.08703 -0.151236,-0.198742 -0.253872,-0.361349 -0.228114,-0.361349 0.02583,0 1.167246,-0.104162 2.536641,-0.231473 1.369386,-0.12731 2.646369,-0.231122 2.837736,-0.230692 0.404055,9.9e-4 0.731754,0.129996 0.992898,0.391133 0.221256,0.221268 6.039081,10.428372 6.152733,10.794734 0.216225,0.696877 -0.181998,1.556107 -0.872001,1.881578 -0.355095,0.167489 -0.617886,0.208366 -0.947466,0.147382 z"
       id="path2334" />
    <path
       style="fill:#ffffff;stroke-width:0.0579916"
       d="m 21.805716,46.090819 c -0.310041,-0.153471 -0.534861,-0.511224 -0.534861,-0.851152 0,-0.131411 0.288801,-1.603554 0.641781,-3.271431 0.707688,-3.343878 0.715518,-3.367659 1.182654,-3.594612 l 0.254763,-0.123774 4.542093,0.09889 c 2.521638,0.0549 4.969026,0.08114 5.501853,0.05896 1.191033,-0.04955 1.428525,0.0092 1.885563,0.466193 0.483642,0.483649 0.528075,0.666565 0.601128,2.474592 0.03402,0.841867 0.06192,1.73008 0.06192,1.973806 l 1.26e-4,0.443139 -0.449442,-0.139037 c -0.946215,-0.29272 -1.593855,-0.385295 -2.885076,-0.412399 -1.298817,-0.02726 -1.892952,0.02955 -2.898828,0.277168 -0.276237,0.068 -0.512082,0.113808 -0.524115,0.101785 -0.01206,-0.01202 -0.04437,-0.705542 -0.072,-1.541155 -0.02763,-0.835614 -0.06147,-1.529843 -0.07533,-1.542733 -0.01386,-0.0129 -1.082862,-0.0424 -2.375604,-0.06556 l -2.350458,-0.04213 -0.570285,2.601697 c -0.62163,2.835879 -0.632439,2.866847 -1.079964,3.095159 -0.290745,0.148328 -0.545715,0.146119 -0.855891,-0.0075 z"
       id="path2373" />
    <path
       style="fill:#ffffff;stroke-width:0.0579916"
       d="M 31.535373,37.093005 C 31.02996,36.920062 30.694728,36.715438 30.33219,36.358567 29.583165,35.621271 29.242875,34.46731 29.465931,33.421083 c 0.274923,-1.289472 1.343106,-2.351688 2.59137,-2.576882 1.13382,-0.204547 2.330712,0.337208 3.001131,1.358404 0.406413,0.619054 0.593919,1.461389 0.483597,2.172415 -0.21168,1.364388 -1.071765,2.385885 -2.320929,2.75651 -0.466155,0.138308 -1.219239,0.121099 -1.685727,-0.03852 z"
       id="path2412" />
  </g>
</svg>
