<?xml version="1.0" encoding="UTF-8" standalone="no"?>
<svg
   viewBox="0 0 50 50"
   height="50"
   width="50"
   version="1.1"
   id="svg18209"
   sodipodi:docname="big-stairs-2.svg"
   inkscape:version="1.1.2 (b8e25be833, 2022-02-05)"
   xmlns:inkscape="http://www.inkscape.org/namespaces/inkscape"
   xmlns:sodipodi="http://sodipodi.sourceforge.net/DTD/sodipodi-0.dtd"
   xmlns="http://www.w3.org/2000/svg"
   xmlns:svg="http://www.w3.org/2000/svg"
   xmlns:rdf="http://www.w3.org/1999/02/22-rdf-syntax-ns#"
   xmlns:cc="http://creativecommons.org/ns#"
   xmlns:dc="http://purl.org/dc/elements/1.1/">
  <defs
     id="defs18213" />
  <sodipodi:namedview
     id="namedview18211"
     pagecolor="#ffffff"
     bordercolor="#999999"
     borderopacity="1"
     inkscape:pageshadow="0"
     inkscape:pageopacity="0"
     inkscape:pagecheckerboard="0"
     showgrid="false"
     inkscape:zoom="8"
     inkscape:cx="19.5625"
     inkscape:cy="21.25"
     inkscape:window-width="1920"
     inkscape:window-height="1017"
     inkscape:window-x="-8"
     inkscape:window-y="-8"
     inkscape:window-maximized="1"
     inkscape:current-layer="layer13"
     width="50px">
    <inkscape:grid
       type="xygrid"
       id="grid27904" />
  </sodipodi:namedview>
  <title
     id="title18203">entrance-alt1.svg</title>
  <metadata
     id="metadata18215">
    <rdf:RDF>
      <cc:Work
         rdf:about="">
        <dc:title>entrance-alt1.svg</dc:title>
      </cc:Work>
    </rdf:RDF>
  </metadata>
  <g
     inkscape:groupmode="layer"
     id="layer12"
     inkscape:label="Layer 1"
     sodipodi:insensitive="true">
    <rect
       style="display:inline;fill:#4e0075;fill-opacity:1;stroke-width:0.364265"
       id="rect171"
       width="50.042751"
       height="49.891018"
       x="0.10362339"
       y="0.17949104"
       ry="9.8469305" />
  </g>
  <g
     inkscape:groupmode="layer"
     id="layer13"
     inkscape:label="Layer 2">
    <path
       fill="#000000"
       d="m 9.0017064,35.510907 c -0.7006846,0 -1.2687024,0.616837 -1.2687024,1.377743 v 5.957468 c 0,1.83698 -2.5374057,1.836992 -2.5374057,0 v -7.335211 c 0,-1.521814 1.1969227,-2.755486 2.5982935,-2.755486 1.243611,0.04716 7.5393702,-0.06972 8.2882002,0.08074 1.23926,0.249041 1.127983,2.616074 0.233883,2.619427 0,0 -6.6100114,0.0777 -7.3142686,0.05533 z"
       id="path18207"
       sodipodi:nodetypes="csssscsscc"
       style="fill:#000000;stroke-width:2.75549" />
    <path
       d="m 18.274025,26.759769 c -0.700684,0 -1.268703,0.616836 -1.268703,1.377743 v 5.957469 c 0,1.836979 -2.537404,1.83699 -2.537404,0 v -7.335212 c 0,-1.521816 1.196922,-2.755488 2.598295,-2.755488 1.243608,0.04715 7.53937,-0.06974 8.288196,0.08074 1.239262,0.24904 1.127985,2.616073 0.233887,2.619427 0,0 -6.610011,0.07771 -7.314267,0.05533 z"
       style="fill:#000000;stroke-width:2.75549"
       id="path26660"
       sodipodi:nodetypes="cssssccccc" />
    <path
       d="m 27.626336,17.898058 c -1.088337,0.06217 -1.268704,0.616837 -1.268704,1.377744 v 5.957468 c 0,1.836977 -2.537407,1.83699 -2.537407,0 v -7.335212 c 0,-1.521813 1.196925,-2.755487 2.598296,-2.755487 1.243613,0.04715 7.539372,-0.06974 8.288201,0.08074 1.23926,0.249042 1.127983,2.616073 0.233885,2.619426 0,0 -5.965848,0.08279 -7.314268,0.05533 z"
       style="fill:#000000;stroke-width:2.75549"
       id="path26660-4"
       sodipodi:nodetypes="cssssccccc" />
    <path
       style="fill:#000000;stroke-width:0.0795751"
       d="M 5.8811313,44.01799 C 5.7391633,43.948003 5.5422154,43.760821 5.443468,43.602033 L 5.2639282,43.313326 V 39.095844 34.878363 L 5.4756306,34.426762 C 5.758746,33.82282 6.2575962,33.298388 6.8043826,33.02987 l 0.448924,-0.22046 3.6380884,-0.02362 3.638089,-0.02362 0.02237,-3.358322 0.02236,-3.358315 0.210711,-0.449438 c 0.268334,-0.572344 0.908235,-1.13185 1.32923,-1.329227 l 0.449438,-0.210713 3.64056,-0.02364 3.640563,-0.02364 0.002,-3.159375 c 10e-4,-1.793949 0.03596,-3.306959 0.08069,-3.500863 0.194019,-0.841119 0.790831,-1.557329 1.465421,-1.913406 l 0.401504,-0.211933 3.938968,-0.02508 c 4.593356,-0.02925 4.994359,-0.0077 5.344563,0.286973 0.328642,0.276534 0.477643,0.658887 0.474964,1.218825 -0.0023,0.487605 -0.157847,0.892731 -0.389348,1.014283 -0.07613,0.03999 -1.91097,0.09884 -4.077402,0.13081 -3.569823,0.05267 -3.965464,0.07159 -4.221694,0.201805 -0.514662,0.261545 -0.508834,0.21754 -0.552895,4.174987 -0.03641,3.270324 -0.05276,3.610411 -0.188613,3.921394 -0.0818,0.187286 -0.223518,0.380534 -0.314905,0.429443 -0.112247,0.06008 -1.436968,0.104505 -4.082868,0.136936 -3.792805,0.04649 -3.923657,0.0532 -4.136304,0.212076 -0.120778,0.09024 -0.293426,0.262872 -0.383662,0.383636 -0.158567,0.21221 -0.165401,0.340102 -0.203855,3.81469 -0.03509,3.171955 -0.05556,3.6239 -0.173796,3.839639 -0.257762,0.470323 -0.06884,0.448538 -4.27822,0.493325 -3.7710951,0.04012 -3.9037432,0.04673 -4.191295,0.208819 -0.1806368,0.101823 -0.3694178,0.304756 -0.4819639,0.518096 -0.1849579,0.350607 -0.185014,0.351701 -0.1867608,3.660455 -0.00162,3.054613 -0.013157,3.334868 -0.149754,3.635644 -0.2731255,0.601397 -1.0309407,0.847212 -1.6583368,0.537917 z"
       id="path201"
       sodipodi:nodetypes="cscccsscccccsscccccscsscsscsssssscsssssscc" />
    <path
       d="m 33.249998,14.64039 0.002,-3.159375 c 10e-4,-1.7939495 0.03596,-3.3069586 0.08069,-3.5008625 0.19402,-0.8411186 2.460584,-2.6676844 1.46542,-1.9134073 l 0.401505,-0.2119315 3.938967,-0.025078 c 4.593357,-0.029244 4.994359,-0.00773 5.344563,0.2869722 0.328642,0.2765348 0.477643,0.6588885 0.474964,1.2188248 -0.0023,0.4876062 -0.157846,0.8927314 -0.389348,1.0142827 -0.07613,0.039978 -1.910969,0.098841 -4.077402,0.1308106 -3.569822,0.052673 -3.965464,0.071592 -4.221692,0.2018053 -0.514663,0.2615449 -0.508835,0.2175402 -0.552897,4.1749867 -0.03641,3.270325 -0.05277,3.610411 -0.188612,3.921395 -0.0818,0.187285 -0.223517,0.380535 -0.314906,0.429443 m -0.453547,-2.491722 c 1.23926,0.249041 1.127984,2.616073 0.233887,2.619427 m 2.038031,-8.8063891 c -1.088337,0.06217 -1.266827,0.6168395 -1.268704,1.3777441 l -0.01474,5.972203 c -0.0046,1.836972 -2.522671,1.822254 -2.522671,-0.01473 V 8.5295722 c 0,-1.5218129 1.196923,-2.7554871 2.598296,-2.7554871 1.243613,0.047146 7.539371,-0.069743 8.2882,0.08074 1.239262,0.2490411 1.127984,2.6160733 0.233886,2.6194261 0,0 -5.965848,0.082796 -7.314267,0.055332 z"
       style="fill:#000000;stroke-width:2.75549"
       id="path3383"
       sodipodi:nodetypes="cccccsccscsccccccsssscsccc" />
    <path
       style="fill:#ffffff;stroke-width:0.107171"
       d="M 5.7540828,43.919321 C 5.2451999,43.519035 5.2311735,43.375849 5.2648559,38.925239 5.2954497,34.882696 5.3036672,34.739119 5.5281809,34.323807 5.8013731,33.818449 6.3268228,33.3015 6.8504277,33.022948 7.1914521,32.841528 7.558998,32.82049 10.896166,32.791375 l 3.670636,-0.03202 v -3.32054 c 0,-3.579756 0.01246,-3.672964 0.592684,-4.433677 0.155177,-0.203448 0.528821,-0.49283 0.830318,-0.643072 l 0.548178,-0.273169 h 3.676386 3.676388 l 6.43e-4,-3.295535 c 3.21e-4,-1.939501 0.04622,-3.459792 0.111462,-3.694722 0.17511,-0.630523 0.733904,-1.281854 1.381506,-1.610286 l 0.58109,-0.294725 h 3.678211 3.678213 v -3.647287 c 0,-3.9279835 0.0081,-3.9940568 0.585803,-4.751405 0.151394,-0.1984868 0.520018,-0.4878699 0.819167,-0.6430733 l 0.543905,-0.2821881 h 4.429519 4.42952 l 0.327714,0.2757534 c 0.545464,0.458977 0.677902,1.4683925 0.266141,2.0284419 -0.151437,0.2059742 -0.315392,0.2165191 -4.198895,0.270056 -4.254135,0.058646 -4.377661,0.073593 -4.652903,0.5629822 -0.09698,0.1724429 -0.152206,1.3093899 -0.198981,4.0968689 -0.06409,3.819024 -0.107012,4.249001 -0.452863,4.536031 -0.11816,0.09807 -1.201832,0.150253 -4.110488,0.197948 -4.007859,0.06572 -4.362998,0.103436 -4.613051,0.489888 -0.04794,0.0741 -0.112206,1.774456 -0.142801,3.778571 -0.04711,3.086055 -0.08294,3.70478 -0.234074,4.041923 -0.112528,0.251024 -0.270136,0.417798 -0.426647,0.451462 -0.136509,0.02936 -1.939018,0.06773 -4.005574,0.08527 -3.367723,0.02858 -3.787125,0.05138 -4.044245,0.219855 -0.641255,0.420166 -0.64133,0.420628 -0.689234,4.237777 -0.02706,2.157036 -0.08875,3.619516 -0.160543,3.806558 -0.06413,0.167056 -0.232761,0.347908 -0.374754,0.401895 -0.141994,0.05399 -1.89631,0.09816 -3.898478,0.09816 -4.0359603,0 -4.2057178,0.0245 -4.5952252,0.663373 -0.2045456,0.335497 -0.2163117,0.533889 -0.2166906,3.653736 -4.287e-4,3.570093 -0.035998,3.830304 -0.5714535,4.181149 -0.3788847,0.248253 -1.0486785,0.234668 -1.3826669,-0.02804 z"
       id="path4000" />
  </g>
</svg>
