<?xml version="1.0" encoding="UTF-8" standalone="no"?>
<svg
   viewBox="0 0 50 50"
   height="50"
   width="50"
   version="1.1"
   id="svg2691"
   sodipodi:docname="big-mens-toilet.svg"
   inkscape:version="1.1.2 (b8e25be833, 2022-02-05)"
   xmlns:inkscape="http://www.inkscape.org/namespaces/inkscape"
   xmlns:sodipodi="http://sodipodi.sourceforge.net/DTD/sodipodi-0.dtd"
   xmlns="http://www.w3.org/2000/svg"
   xmlns:svg="http://www.w3.org/2000/svg"
   xmlns:rdf="http://www.w3.org/1999/02/22-rdf-syntax-ns#"
   xmlns:cc="http://creativecommons.org/ns#"
   xmlns:dc="http://purl.org/dc/elements/1.1/">
  <defs
     id="defs2695" />
  <sodipodi:namedview
     id="namedview2693"
     pagecolor="#ffffff"
     bordercolor="#999999"
     borderopacity="1"
     inkscape:pageshadow="0"
     inkscape:pageopacity="0"
     inkscape:pagecheckerboard="0"
     showgrid="false"
     inkscape:zoom="10.631579"
     inkscape:cx="28.735148"
     inkscape:cy="23.138614"
     inkscape:window-width="1920"
     inkscape:window-height="1017"
     inkscape:window-x="-8"
     inkscape:window-y="-8"
     inkscape:window-maximized="1"
     inkscape:current-layer="layer3"
     width="50px">
    <inkscape:grid
       type="xygrid"
       id="grid4617" />
  </sodipodi:namedview>
  <title
     id="title2685">toilet.svg</title>
  <metadata
     id="metadata4601">
    <rdf:RDF>
      <cc:Work
         rdf:about="">
        <dc:title>toilet.svg</dc:title>
      </cc:Work>
    </rdf:RDF>
  </metadata>
  <g
     inkscape:groupmode="layer"
     id="layer3"
     inkscape:label="Layer 1"
     sodipodi:insensitive="true">
    <rect
       style="display:inline;fill:#4e0075;fill-opacity:1;stroke-width:0.364265"
       id="rect171"
       width="50.042751"
       height="49.891018"
       x="-0.095633112"
       y="-0.019766554"
       ry="9.8469305" />
  </g>
  <g
     inkscape:groupmode="layer"
     id="layer5"
     inkscape:label="Layer 2">
    <path
       fill="#000000"
       d="m 29.605536,6.8781734 c 0,-2.4980222 -2.025195,-4.5232173 -4.523218,-4.5232173 -2.498021,0 -4.523217,2.0251951 -4.523217,4.5232173 0,2.4980222 2.025196,4.5232166 4.523217,4.5232166 2.498023,0 4.523218,-2.0251944 4.523218,-4.5232166 z m 1.507738,7.5386956 H 19.051362 c -0.832574,0 -1.507739,0.675166 -1.507739,1.507738 v 15.077391 c 0,0.832573 0.675165,1.50774 1.507739,1.50774 0.832573,0 1.507739,-0.675167 1.507739,-1.50774 v 15.07739 c 0,0.832573 0.675166,1.50774 1.507739,1.50774 0.832574,0 1.50774,-0.675167 1.50774,-1.50774 v -15.07739 h 3.015477 v 15.07739 c 0,0.832573 0.675166,1.50774 1.50774,1.50774 0.832574,0 1.507739,-0.675167 1.507739,-1.50774 v -15.07739 c 0,0.832573 0.675165,1.50774 1.507738,1.50774 0.832574,0 1.50774,-0.675167 1.50774,-1.50774 V 15.924607 c 0,-0.832573 -0.675166,-1.507738 -1.50774,-1.507738 z"
       id="path2689"
       sodipodi:nodetypes="sssssssssscsssccssscssss"
       style="fill:#000000;stroke-width:3.01548" />
    <path
       style="fill:#ffffff;stroke-width:0.0893564"
       d="m 21.64125,47.450559 c -0.188957,-0.06794 -0.445454,-0.217432 -0.569993,-0.3322 -0.486269,-0.448115 -0.471002,-0.176523 -0.477451,-8.493607 -0.0049,-6.337569 -0.02602,-7.645911 -0.118563,-7.350565 -0.172175,0.549459 -0.388428,0.819855 -0.824533,1.03097 -0.744984,0.360641 -1.557836,0.03862 -1.921084,-0.761076 -0.155095,-0.341442 -0.164036,-0.782377 -0.164036,-8.090455 0,-7.311127 0.0088,-7.74867 0.164131,-8.086757 0.201147,-0.438037 0.430694,-0.649978 0.875967,-0.808782 0.454562,-0.162117 12.425564,-0.188041 12.904587,-0.02795 0.388534,0.129854 0.783253,0.489289 0.940242,0.856197 0.101336,0.236837 0.12303,1.664235 0.12303,8.095042 v 7.807504 l -0.207097,0.391627 c -0.28508,0.539094 -0.868467,0.844714 -1.446872,0.757977 -0.536523,-0.08046 -0.966405,-0.461287 -1.19663,-1.060089 l -0.178208,-0.46351 -0.0047,7.766159 -0.0047,7.766159 -0.220344,0.375989 c -0.406698,0.693978 -1.326522,0.909193 -1.995041,0.466787 -0.683111,-0.452061 -0.644022,0.06945 -0.644022,-8.592249 v -7.738167 h -1.563738 -1.563737 v 7.642846 c 0,8.166916 0.0091,7.986952 -0.427641,8.469529 -0.360171,0.397986 -0.982737,0.557289 -1.479656,0.378617 z"
       id="path1054" />
    <path
       style="fill:#ffffff;stroke-width:0.0893564"
       d="M 24.436549,11.297298 C 21.947173,10.922229 20.192,8.4401525 20.698531,6.0111804 c 0.430334,-2.0635847 2.27886,-3.5764025 4.369075,-3.5756126 3.360728,0.00127 5.49573,3.4868347 3.97583,6.4908642 -0.833224,1.646838 -2.776095,2.646708 -4.606887,2.370866 z"
       id="path1093" />
  </g>
</svg>
