<?xml version="1.0" encoding="UTF-8" standalone="no"?>
<svg
   viewBox="0 0 50 50"
   height="50"
   width="50"
   version="1.1"
   id="svg18209"
   sodipodi:docname="big-exit.svg"
   inkscape:version="1.1.2 (b8e25be833, 2022-02-05)"
   xmlns:inkscape="http://www.inkscape.org/namespaces/inkscape"
   xmlns:sodipodi="http://sodipodi.sourceforge.net/DTD/sodipodi-0.dtd"
   xmlns="http://www.w3.org/2000/svg"
   xmlns:svg="http://www.w3.org/2000/svg"
   xmlns:rdf="http://www.w3.org/1999/02/22-rdf-syntax-ns#"
   xmlns:cc="http://creativecommons.org/ns#"
   xmlns:dc="http://purl.org/dc/elements/1.1/">
  <defs
     id="defs18213" />
  <sodipodi:namedview
     id="namedview18211"
     pagecolor="#ffa8ff"
     bordercolor="#999999"
     borderopacity="1"
     inkscape:pageshadow="0"
     inkscape:pageopacity="0"
     inkscape:pagecheckerboard="0"
     showgrid="false"
     inkscape:zoom="10.934211"
     inkscape:cx="30.500601"
     inkscape:cy="22.315283"
     inkscape:window-width="1920"
     inkscape:window-height="1017"
     inkscape:window-x="-8"
     inkscape:window-y="-8"
     inkscape:window-maximized="1"
     inkscape:current-layer="layer1"
     width="50px">
    <inkscape:grid
       type="xygrid"
       id="grid657" />
  </sodipodi:namedview>
  <title
     id="title18203">entrance-alt1.svg</title>
  <metadata
     id="metadata18215">
    <rdf:RDF>
      <cc:Work
         rdf:about="">
        <dc:title>entrance-alt1.svg</dc:title>
      </cc:Work>
    </rdf:RDF>
  </metadata>
  <g
     inkscape:groupmode="layer"
     id="layer1"
     inkscape:label="Layer 1"
     style="display:inline">
    <rect
       style="fill:#4e0075;stroke-width:0.364265;fill-opacity:1"
       id="rect171"
       width="50.042751"
       height="49.891018"
       x="0.099882849"
       y="0.0085119922"
       ry="9.8469305" />
  </g>
  <g
     inkscape:groupmode="layer"
     id="layer2"
     inkscape:label="Layer 2"
     style="display:inline">
    <rect
       fill="none"
       x="6.1582489"
       y="3.0142365"
       width="16.928999"
       height="16.928999"
       id="rect18205"
       style="stroke-width:0.891" />
    <path
       fill="#000000"
       d="m 11.988229,5.6460475 h 19.546312 c 2.004748,0 2.004748,3.007125 0,3.007125 h -18.04275 c -0.830394,0 -1.503562,0.6731679 -1.503562,1.5035625 v 30.07125 c 0,0.830392 0.673168,1.503562 1.503562,1.503562 h 18.794532 c 2.004747,0 2.004747,3.007125 0,3.007125 H 11.988229 c -1.660789,0 -3.0071251,-1.346336 -3.0071251,-3.007125 V 8.6531725 c 0,-1.6607892 1.3463361,-3.007125 3.0071251,-3.007125 z"
       id="path18207"
       sodipodi:nodetypes="sssssssssssss"
       style="stroke-width:3.00712" />
    <path
       d="m 35.215952,30.195837 c -1.10867,1.147889 0.574202,2.830756 1.72209,1.722089 l 6.496199,-6.520558 c 0.238537,-0.23793 0,-0.862263 0,-0.862263 v 0 L 36.93804,18.016981 c -1.147886,-1.10867 -2.830758,0.574201 -1.722088,1.72209 l 4.009279,4.028765 H 22.905562 c -1.623845,0 -1.623845,2.435772 0,2.435772 h 16.319669 z"
       style="fill:#000000;stroke-width:2.43577"
       id="path448"
       sodipodi:nodetypes="cccsccccsscc" />
    <path
       style="fill:#ffffff;stroke-width:0.104764"
       d="M 11.083323,44.517682 C 10.058676,44.152182 9.343096,43.351745 9.1225556,42.324396 9.0407263,41.943209 9.0166586,36.886945 9.0394653,24.868367 L 9.0715718,7.9489613 9.2970593,7.4611449 C 9.6055824,6.7936903 10.279713,6.1685858 10.969192,5.9106188 11.531053,5.7003999 11.725551,5.6965326 21.736468,5.6965326 h 10.195078 l 0.355977,0.2371018 c 0.195786,0.130406 0.442554,0.413673 0.54837,0.6294823 0.372329,0.7593494 -0.05356,1.7361091 -0.853904,1.958398 -0.249867,0.069398 -3.658048,0.1075891 -9.657756,0.1082208 -9.066305,9.532e-4 -9.279186,0.00559 -9.613065,0.2091549 -0.187793,0.1144985 -0.435385,0.3618275 -0.550205,0.54962 -0.206357,0.3375047 -0.20846,0.520792 -0.18238,15.8989126 0.02607,15.374058 0.02886,15.560751 0.235913,15.835548 0.444922,0.590479 -0.152275,0.55593 10.585855,0.61242 9.284821,0.04884 9.976313,0.06486 10.239234,0.237178 0.650898,0.426594 0.865186,1.236085 0.511001,1.930346 -0.417185,0.817752 0.35829,0.766435 -11.504095,0.761273 -8.612569,-0.0038 -10.638873,-0.03083 -10.963168,-0.146506 z"
       id="path2679" />
    <path
       style="fill:#ffffff;stroke-width:0.0848588"
       d="m 35.84715,32.185803 c -0.797446,-0.237636 -1.156026,-1.08072 -0.743528,-1.748156 0.096,-0.155328 1.069756,-1.157046 2.163903,-2.226039 1.094148,-1.06899 1.989361,-1.967899 1.989361,-1.997575 0,-0.02968 -3.755725,-0.05396 -8.346056,-0.05396 h -8.346057 l -0.28834,-0.1941 c -0.685926,-0.461741 -0.694949,-1.518849 -0.01689,-1.978416 0.228408,-0.154807 0.565306,-0.162763 8.618255,-0.203535 l 8.380555,-0.04243 -1.918788,-1.909325 c -1.055333,-1.05013 -2.029421,-2.058256 -2.164638,-2.24028 -0.473838,-0.63786 -0.252137,-1.434987 0.490465,-1.763475 0.697907,-0.308717 0.634417,-0.357858 4.378772,3.389206 3.005947,3.008124 3.381199,3.413182 3.427745,3.700005 l 0.05226,0.322085 -3.427163,3.431025 c -1.884941,1.887065 -3.503799,3.452776 -3.597464,3.479358 -0.343104,0.09738 -0.429334,0.102083 -0.652402,0.0356 z"
       id="path2718"
       sodipodi:nodetypes="csssscssscssssscsssc" />
    <path
       d="M 30.09429,6.7863416 V 17.090115 l 0.23963,0.355976 c 0.57005,0.846821 1.875122,0.857962 2.442489,0.02085 0.191119,-0.281984 0.200943,-0.697909 0.251276,-10.639821"
       style="fill:#ffffff;stroke-width:0.104764"
       id="path1843"
       sodipodi:nodetypes="ccssc" />
    <path
       d="M 30.835766,43.585921 V 33.282146 l 0.239631,-0.355975 c 0.57005,-0.846821 1.875121,-0.857962 2.442488,-0.02085 0.19112,0.281985 0.200942,0.697908 0.251277,10.639822"
       style="fill:#ffffff;stroke-width:0.104764"
       id="path2438"
       sodipodi:nodetypes="ccssc" />
  </g>
</svg>
