<?xml version="1.0" encoding="UTF-8" standalone="no"?>
<svg
   viewBox="0 0 19 19"
   height="19"
   width="19"
   version="1.1"
   id="svg18209"
   sodipodi:docname="exit.svg"
   inkscape:version="1.1.2 (b8e25be833, 2022-02-05)"
   xmlns:inkscape="http://www.inkscape.org/namespaces/inkscape"
   xmlns:sodipodi="http://sodipodi.sourceforge.net/DTD/sodipodi-0.dtd"
   xmlns="http://www.w3.org/2000/svg"
   xmlns:svg="http://www.w3.org/2000/svg"
   xmlns:rdf="http://www.w3.org/1999/02/22-rdf-syntax-ns#"
   xmlns:cc="http://creativecommons.org/ns#"
   xmlns:dc="http://purl.org/dc/elements/1.1/">
  <defs
     id="defs18213" />
  <sodipodi:namedview
     id="namedview18211"
     pagecolor="#ffffff"
     bordercolor="#999999"
     borderopacity="1"
     inkscape:pageshadow="0"
     inkscape:pageopacity="0"
     inkscape:pagecheckerboard="0"
     showgrid="true"
     inkscape:zoom="30.926618"
     inkscape:cx="4.1388296"
     inkscape:cy="6.8226019"
     inkscape:window-width="1920"
     inkscape:window-height="1017"
     inkscape:window-x="-8"
     inkscape:window-y="-8"
     inkscape:window-maximized="1"
     inkscape:current-layer="svg18209">
    <inkscape:grid
       type="xygrid"
       id="grid657" />
  </sodipodi:namedview>
  <title
     id="title18203">entrance-alt1.svg</title>
  <rect
     fill="none"
     x="0"
     y="0"
     width="19"
     height="19"
     id="rect18205" />
  <path
     fill="#000000"
     d="m 4,3 h 6.5 c 0.666666,0 0.666666,1 0,1 h -6 C 4.2238576,4 4,4.2238576 4,4.5 v 10 C 4,14.776142 4.2238576,15 4.5,15 h 6.25 c 0.666666,0 0.666666,1 0,1 H 4 C 3.4477153,16 3,15.552285 3,15 V 4 C 3,3.4477153 3.4477153,3 4,3 Z"
     id="path18207"
     sodipodi:nodetypes="sssssssssssss" />
  <metadata
     id="metadata18215">
    <rdf:RDF>
      <cc:Work
         rdf:about="">
        <dc:title>entrance-alt1.svg</dc:title>
      </cc:Work>
    </rdf:RDF>
  </metadata>
  <path
     d="M 12.293,11.293 C 11.837838,11.764263 12.528737,12.455161 13,12 l 2.666999,-2.6769997 c 0.09793,-0.097682 0,-0.354 0,-0.354 v 0 l -2.667,-2.676 c -0.471262,-0.4551612 -1.162161,0.2357368 -0.706999,0.707 l 1.646,1.654 H 7.2389995 c -0.666666,0 -0.666666,1 0,1 H 13.939 Z"
     style="fill:#000000"
     id="path448"
     sodipodi:nodetypes="cccsccccsscc" />
</svg>
