<?xml version="1.0" encoding="UTF-8" standalone="no"?>
<svg
   viewBox="0 0 50 50"
   height="50"
   width="50"
   version="1.1"
   id="svg27"
   sodipodi:docname="lift.svg"
   inkscape:version="1.1.2 (b8e25be833, 2022-02-05)"
   xmlns:inkscape="http://www.inkscape.org/namespaces/inkscape"
   xmlns:sodipodi="http://sodipodi.sourceforge.net/DTD/sodipodi-0.dtd"
   xmlns="http://www.w3.org/2000/svg"
   xmlns:svg="http://www.w3.org/2000/svg"
   xmlns:rdf="http://www.w3.org/1999/02/22-rdf-syntax-ns#"
   xmlns:cc="http://creativecommons.org/ns#"
   xmlns:dc="http://purl.org/dc/elements/1.1/">
  <defs
     id="defs31" />
  <sodipodi:namedview
     id="namedview29"
     pagecolor="#ff9fff"
     bordercolor="#999999"
     borderopacity="1"
     inkscape:pageshadow="0"
     inkscape:pageopacity="0"
     inkscape:pagecheckerboard="0"
     showgrid="false"
     inkscape:zoom="7.5176616"
     inkscape:cx="40.903677"
     inkscape:cy="19.553953"
     inkscape:window-width="1920"
     inkscape:window-height="1017"
     inkscape:window-x="-8"
     inkscape:window-y="-8"
     inkscape:window-maximized="1"
     inkscape:current-layer="svg27">
    <inkscape:grid
       type="xygrid"
       id="grid213" />
  </sodipodi:namedview>
  <title
     id="title21">toilet.svg</title>
  <path
     fill="#000000"
     d="m 21.905945,27.1 c -0.99408,0 -1.8,-0.80592 -1.8,-1.8 0,-0.99408 0.80592,-1.8 1.8,-1.8 0.99408,0 1.8,0.80592 1.8,1.8 0,0.99408 -0.80592,1.8 -1.8,1.8 z m 11.4,-1.8 c 0,-0.99408 -0.80592,-1.8 -1.8,-1.8 -0.99408,0 -1.8,0.80592 -1.8,1.8 0,0.99408 0.80592,1.8 1.8,1.8 0.99408,0 1.8,-0.80592 1.8,-1.8 z m -6.168,6.168 v 0 l -2.976,-2.988 v 0 c 0,0 -0.2856,-0.18612 -0.456,-0.18 h -3.6 c -0.15636,3.6e-4 -0.42,0.168 -0.42,0.168 v 0 l -3.012,2.988 c -0.27132,0.2124 -0.31908,0.60468 -0.10668,0.876 0.2124,0.27132 0.60468,0.31908 0.876,0.10668 0.03972,-0.03108 0.0756,-0.06696 0.10668,-0.10668 l 2.556,-2.592 -2.4,6.96 h 2.4 v 3.996 c -0.009,0.05964 -0.009,0.12036 0,0.18 0.0666,0.33132 0.38928,0.546 0.7206,0.4794 0.2418,-0.0486 0.4794,-0.4794 0.4794,-0.4794 v 0 -4.176 h 1.2 v 4.2 0 c 0,0 0.38928,0.546 0.7206,0.4794 0.2418,-0.0486 0.4308,-0.2376 0.4794,-0.4794 0.009,-0.05964 0.009,-0.12036 0,-0.18 V 36.7 h 2.4 l -2.4,-6.96 2.568,2.592 v 0 c 0,0 0.28188,0.204 0.456,0.204 0.33048,-0.02544 0.58332,-0.30468 0.576,-0.636 0.0028,-0.16044 -0.168,-0.432 -0.168,-0.432 z m 6.768,-3.168 h -4.8 c -0.33132,0 -0.6,0.26868 -0.6,0.6 v 6 c 0,0.33132 0.26868,0.6 0.6,0.6 0.33132,0 0.6,-0.26868 0.6,-0.6 v 6 c 0,0.33132 0.26868,0.6 0.6,0.6 0.33132,0 0.6,-0.26868 0.6,-0.6 v -6 h 1.2 v 6 c 0,0.33132 0.26868,0.6 0.6,0.6 0.33132,0 0.6,-0.26868 0.6,-0.6 v -6 c 0,0.33132 0.26868,0.6 0.6,0.6 0.33132,0 0.6,-0.26868 0.6,-0.6 v -6 c 0,-0.33132 -0.26868,-0.6 -0.6,-0.6 z"
     id="path25"
     sodipodi:nodetypes="sssssssssssccsccsccsccccccccsccccscccccccsccsssssscsssccssscssss"
     style="stroke-width:1.2" />
  <metadata
     id="metadata113">
    <rdf:RDF>
      <cc:Work
         rdf:about="">
        <dc:title>toilet.svg</dc:title>
      </cc:Work>
    </rdf:RDF>
  </metadata>
  <rect
     fill="none"
     x="-15.53"
     y="-25.50502"
     width="15.39"
     height="15.39"
     id="rect117-9"
     transform="matrix(0,-1,-1,0,0,0)"
     style="stroke-width:0.81" />
  <path
     fill="#000000"
     d="m 24.027759,7.1927591 c 0.316321,-0.3163293 0.316321,-0.8291889 0,-1.1455182 l -3.645,-3.6449919 c -0.316329,-0.316305 -0.829189,-0.316305 -1.145518,0 l -3.644992,3.6449919 c -0.316305,0.3163293 -0.316305,0.8291889 0,1.1455182 0.316305,0.3163212 0.829197,0.3163212 1.145502,0 L 19,5 v 7.695 c 0,0.447351 0.362653,0.81 0.81,0.81 0.447347,0 0.81,-0.362649 0.81,-0.81 V 5 l 2.262241,2.1927591 c 0.316329,0.3163212 0.829189,0.3163212 1.145518,0 z"
     id="path119-3"
     style="stroke-width:0.81" />
  <path
     fill="#000000"
     d="M 39,19 V 45.733096 H 12.266904 V 19 H 39 m 0.771147,-3.341637 h -28.27539 c -1.419682,0 -2.57049,1.150808 -2.57049,2.57049 v 28.27539 c 0,1.419682 1.150808,2.57049 2.57049,2.57049 h 28.27539 c 1.419682,0 2.57049,-1.150808 2.57049,-2.57049 v -28.27539 c 0,-1.419682 -1.150808,-2.57049 -2.57049,-2.57049 z"
     id="path3270"
     style="stroke-width:2.57049" />
  <rect
     fill="none"
     x="0.13999844"
     y="-41.885021"
     width="15.39"
     height="15.39"
     id="rect117-9-2"
     transform="rotate(90)"
     style="stroke-width:0.81" />
  <path
     fill="#000000"
     d="m 35.027759,8.8072412 c 0.316321,0.316329 0.316321,0.829189 0,1.145518 l -3.645,3.6449918 c -0.316329,0.316305 -0.829189,0.316305 -1.145518,0 L 26.592249,9.9527592 c -0.316305,-0.316329 -0.316305,-0.829189 0,-1.145518 0.316305,-0.316321 0.829197,-0.316321 1.145502,0 L 30,11 V 3.3050002 c 0,-0.447351 0.362653,-0.81 0.81,-0.81 0.447347,0 0.81,0.362649 0.81,0.81 V 11 l 2.262241,-2.1927588 c 0.316329,-0.316321 0.829189,-0.316321 1.145518,0 z"
     id="path119-3-4"
     style="stroke-width:0.81" />
  <path
     style="fill:#ffffff;stroke-width:0.06651"
     d="m 20.339155,41.175548 -0.186612,-0.160444 -0.01924,-2.167408 -0.01924,-2.167407 h -1.16131 c -0.638721,0 -1.16131,-0.02595 -1.16131,-0.05767 0,-0.03172 0.524577,-1.578139 1.165727,-3.436491 0.64115,-1.858351 1.156192,-3.407426 1.144538,-3.442388 -0.01165,-0.03496 -0.618537,0.551137 -1.34863,1.302441 -0.730092,0.751304 -1.408398,1.402704 -1.507346,1.447556 -0.347239,0.157399 -0.78449,-0.183888 -0.78449,-0.612317 0,-0.203952 3.048775,-3.278568 3.425267,-3.454299 0.238693,-0.111412 0.447215,-0.124177 2.028556,-0.124177 1.584153,0 1.789439,0.01262 2.028557,0.124661 0.356155,0.166886 3.118024,2.94375 3.253168,3.270831 0.08922,0.215932 0.08784,0.261125 -0.01418,0.464857 -0.142266,0.284088 -0.389868,0.379845 -0.675863,0.261381 -0.11807,-0.04891 -0.766629,-0.665365 -1.486077,-1.412524 -0.702116,-0.72916 -1.284554,-1.28601 -1.294307,-1.237444 -0.0098,0.04857 0.487803,1.554849 1.105679,3.347295 0.617877,1.792445 1.144158,3.326333 1.169513,3.40864 l 0.0461,0.149647 H 24.845992 23.64433 v 2.190004 2.190004 l -0.175245,0.137848 c -0.253071,0.199066 -0.450879,0.17239 -0.720424,-0.09715 L 22.51365,40.865988 v -2.092849 -2.09285 h -0.631846 -0.631845 v 2.133437 2.133438 l -0.194414,0.194414 c -0.23777,0.23777 -0.466724,0.248627 -0.71639,0.03397 z"
     id="path3735" />
  <path
     style="fill:#ffffff;stroke-width:0.06651"
     d="m 21.131559,26.864886 c -0.617804,-0.307864 -0.970304,-0.874708 -0.968748,-1.557814 0.0012,-0.508616 0.117813,-0.814862 0.45079,-1.183428 0.82916,-0.917781 2.305535,-0.71128 2.859273,0.399927 0.333759,0.669766 0.200794,1.48133 -0.329596,2.011719 -0.53039,0.53039 -1.341953,0.663355 -2.011719,0.329596 z"
     id="path3774" />
  <path
     style="fill:#ffffff;stroke-width:0.06651"
     d="m 30.787425,26.909537 c -0.612388,-0.278111 -0.970893,-0.834862 -1.010452,-1.56921 -0.02216,-0.411415 -0.0028,-0.50798 0.166341,-0.83016 0.589436,-1.122667 2.044427,-1.299807 2.879934,-0.350621 0.788405,0.895676 0.478092,2.246373 -0.632387,2.75259 -0.35826,0.163314 -1.040886,0.16205 -1.403436,-0.0026 z"
     id="path3813" />
  <path
     style="fill:#ffffff;stroke-width:0.06651"
     d="m 30.012657,41.36446 c -0.100596,-0.05457 -0.189658,-0.105752 -0.197914,-0.11373 -0.0083,-0.008 -0.0307,-1.45112 -0.04988,-3.206985 -0.03031,-2.77459 -0.0467,-3.163923 -0.125219,-2.974304 -0.08736,0.210962 -0.364881,0.413667 -0.566346,0.413667 -0.05388,0 -0.19005,-0.07748 -0.302598,-0.172187 l -0.204633,-0.172188 v -3.241486 -3.241486 l 0.171548,-0.161241 0.171547,-0.161241 2.420392,-0.01972 c 1.590176,-0.01295 2.512164,0.005 2.68794,0.05233 0.476723,0.128368 0.467967,0.06254 0.467967,3.518045 0,1.830595 -0.02609,3.127069 -0.065,3.229396 -0.03591,0.09444 -0.171873,0.221925 -0.303779,0.284826 -0.214253,0.102171 -0.257105,0.103703 -0.417199,0.01492 -0.09813,-0.05442 -0.230749,-0.203088 -0.294708,-0.330378 -0.112396,-0.223689 -0.116326,-0.128997 -0.117373,2.828024 -8.2e-4,2.313424 -0.02135,3.099517 -0.0842,3.223726 -0.184951,0.365512 -0.628374,0.424758 -0.91073,0.121685 -0.131492,-0.141141 -0.134861,-0.222524 -0.134861,-3.258187 V 34.884515 H 31.525766 30.89392 v 3.02951 c 0,2.57204 -0.01517,3.058843 -0.100453,3.223766 -0.170932,0.330545 -0.443484,0.409666 -0.780805,0.226666 z"
     id="path3852" />
  <path
     style="fill:#ffffff;stroke-width:0.06651"
     d="M 10.907647,48.957818 C 9.9366709,48.716127 9.2201775,47.959356 9.0124577,46.956091 8.9659045,46.731244 8.9493136,41.938455 8.9612306,32.157606 l 0.017625,-14.465934 0.1552868,-0.384733 c 0.2013315,-0.498811 0.7530628,-1.096659 1.2255936,-1.328035 0.198175,-0.09704 0.552175,-0.20756 0.786665,-0.245607 0.595359,-0.0966 28.394624,-0.09602 28.990174,6.01e-4 1.100295,0.178516 1.939502,1.018505 2.12947,2.131454 0.05124,0.300199 0.06692,4.641365 0.05344,14.791079 l -0.01909,14.36617 -0.160193,0.39906 c -0.221346,0.551402 -0.884646,1.214702 -1.436048,1.436048 l -0.399061,0.160193 -14.532444,0.01135 c -11.400823,0.0089 -14.604106,-0.0065 -14.864995,-0.07143 z M 39.008141,32.390391 V 18.988617 H 25.606367 12.204593 v 13.357434 c 0,7.346589 0.01995,13.377387 0.04434,13.401774 0.02439,0.02439 6.055185,0.04434 13.401774,0.04434 h 13.357434 z"
     id="path3891" />
  <path
     style="fill:#ffffff;stroke-width:0.06651"
     d="m 30.52811,13.735938 c -0.246909,-0.104809 -4.078542,-4.0134566 -4.126719,-4.2096652 -0.05866,-0.2389174 0.0685,-0.539937 0.316121,-0.7482937 0.203191,-0.170974 0.463497,-0.2085329 0.730179,-0.1053556 0.08469,0.032765 0.682465,0.5714964 1.328395,1.197181 0.645929,0.6256835 1.192143,1.1376075 1.213808,1.1376075 0.02166,0 0.03939,-1.7673279 0.03939,-3.9273952 0,-4.2331173 -0.005,-4.1690232 0.346969,-4.4155776 0.08151,-0.057091 0.279215,-0.1038025 0.439346,-0.1038025 0.242429,0 0.328987,0.03784 0.517282,0.2261341 l 0.226134,0.2261342 v 3.9972536 c 0,2.1984895 0.02385,3.9972534 0.053,3.9972534 0.02915,0 0.575367,-0.503893 1.213808,-1.1197635 0.638442,-0.6158697 1.226177,-1.1546013 1.306079,-1.1971807 0.601794,-0.3206964 1.321233,0.3959686 1.011643,1.0077434 -0.104725,0.2069467 -3.780709,3.8924268 -3.99692,4.0072458 -0.198858,0.105604 -0.416301,0.11632 -0.618521,0.03048 z"
     id="path3930" />
  <path
     style="fill:#ffffff;stroke-width:0.06651"
     d="m 19.438396,13.36417 c -0.391013,-0.212161 -0.383268,-0.122278 -0.383268,-4.4485213 0,-2.1783577 -0.02003,-3.9606504 -0.04452,-3.9606504 -0.02448,0 -0.55635,0.5044824 -1.181922,1.121072 C 16.548455,7.3379186 16.36345,7.4674093 15.997509,7.3577707 15.614316,7.2429627 15.43033,7.0008773 15.43033,6.6114846 V 6.2833862 l 2.030791,-2.0276499 2.030792,-2.0276498 h 0.327755 0.327755 l 1.983254,1.9786738 c 2.191383,2.1863209 2.235806,2.246612 2.004422,2.7204153 -0.155229,0.3178646 -0.525877,0.5207705 -0.829481,0.454088 -0.145701,-0.032001 -0.570389,-0.3956634 -1.44687,-1.2389642 l -1.240634,-1.193667 -0.03325,4.0104128 c -0.03602,4.3442898 -0.02052,4.1752828 -0.403856,4.4017258 -0.224281,0.132487 -0.502353,0.133759 -0.742607,0.0034 z"
     id="path3969" />
</svg>
