<?xml version="1.0" encoding="UTF-8" standalone="no"?>
<svg
   viewBox="0 0 19 19"
   height="19"
   width="19"
   version="1.1"
   id="svg236"
   sodipodi:docname="man.svg"
   inkscape:version="1.1.2 (b8e25be833, 2022-02-05)"
   xmlns:inkscape="http://www.inkscape.org/namespaces/inkscape"
   xmlns:sodipodi="http://sodipodi.sourceforge.net/DTD/sodipodi-0.dtd"
   xmlns="http://www.w3.org/2000/svg"
   xmlns:svg="http://www.w3.org/2000/svg"
   xmlns:rdf="http://www.w3.org/1999/02/22-rdf-syntax-ns#"
   xmlns:cc="http://creativecommons.org/ns#"
   xmlns:dc="http://purl.org/dc/elements/1.1/">
  <defs
     id="defs240" />
  <sodipodi:namedview
     id="namedview238"
     pagecolor="#ffffff"
     bordercolor="#999999"
     borderopacity="1"
     inkscape:pageshadow="0"
     inkscape:pageopacity="0"
     inkscape:pagecheckerboard="0"
     showgrid="false"
     inkscape:zoom="43.736842"
     inkscape:cx="9.5"
     inkscape:cy="7.6823105"
     inkscape:window-width="1920"
     inkscape:window-height="1017"
     inkscape:window-x="-8"
     inkscape:window-y="-8"
     inkscape:window-maximized="1"
     inkscape:current-layer="svg236" />
  <title
     id="title230">aerialway.svg</title>
  <rect
     fill="none"
     x="0"
     y="0"
     width="19"
     height="19"
     id="rect232" />
  <path
     style="fill:none;stroke:#000000;stroke-width:1px;stroke-linecap:butt;stroke-linejoin:miter;stroke-opacity:1"
     d="M 9.0084236,0.5944645 C 8.9626956,0.5792218 8.9192306,0.5532356 8.8712395,0.5487365 8.347443,0.4996306 7.8197154,0.5030085 7.2936221,0.5030085 c -0.8097879,0 -1.6819507,-0.003125 -2.377858,0.48014441 C 4.7738415,1.0817102 4.6533932,1.2082169 4.5270758,1.3261131 4.0178578,1.8013832 3.4967714,2.3969859 3.3152828,3.0866426 3.091463,3.9371578 3.2415299,5.2325246 3.566787,6.0361011 3.61928,6.1657895 3.7038228,6.2800675 3.7725632,6.4019254 c 0.2401234,0.4256733 0.4575296,0.8739784 0.8459687,1.188929 0.6199719,0.5026799 1.3180823,0.7370425 2.0577617,1.0060168 0.757313,0.2753866 1.5245842,0.5199219 2.33213,0.5944645 0.6494956,0.059954 2.2149534,0.1227979 2.8351384,-0.2286402 0.523852,-0.2968493 0.847044,-0.7213027 1.211793,-1.188929 0.153757,-0.1971244 0.332022,-0.3781092 0.45728,-0.5944645 0.3492,-0.6031624 0.564609,-1.532446 0.617329,-2.2178098 C 14.186673,4.2242715 14.186245,3.4761135 13.76414,2.8351384 13.246652,2.0493246 12.805287,1.7636374 12.00361,1.3489771 11.91879,1.3051045 11.841852,1.2444278 11.752106,1.211793 11.588776,1.1524004 11.416204,1.1223536 11.249097,1.0746089 10.943406,0.98726855 10.62577,0.86306008 10.311673,0.80024067 10.243999,0.78670588 10.173267,0.79234793 10.105897,0.77737665 9.9872041,0.77525917 9.8957168,0.69053569 9.7858002,0.66305656 9.4958789,0.59057623 9.1921235,0.54873646 8.8941035,0.54873646"
     id="path355" />
  <path
     style="fill:none;stroke:#000000;stroke-width:1px;stroke-linecap:butt;stroke-linejoin:miter;stroke-opacity:1"
     d="m 8.3910951,9.1456077 c 0.065581,0.5637145 0.2356271,1.1089093 0.3200962,1.6690733 0.1514034,1.004043 0.2212788,2.028201 0.2972323,3.040915 0.013727,0.183032 0.034279,0.365547 0.045728,0.548736 0.012296,0.196733 -0.017851,0.398107 0,0.594465 0.024117,0.265286 0.022864,0.071 0.022864,0.160048 -0.053349,0 -0.1105144,-0.01981 -0.1600481,0 -0.070762,0.02831 -0.1192422,0.0953 -0.1829121,0.137184 -0.2260957,0.148747 -0.4516198,0.298961 -0.6859206,0.434416 -0.8809643,0.509308 -1.6899246,0.856208 -2.6750903,1.097473 -0.083783,0.02052 -1.166065,0.238959 -1.166065,0.297232"
     id="path357" />
  <path
     style="fill:none;stroke:#000000;stroke-width:1px;stroke-linecap:butt;stroke-linejoin:miter;stroke-opacity:1"
     d="m 9.0770156,15.158845 c 0.1524268,0.06859 0.3194278,0.111248 0.4572804,0.205776 0.1333365,0.09143 0.220961,0.236874 0.3429603,0.34296 0.2290357,0.199162 0.4647727,0.391099 0.7087847,0.571601 0.690683,0.510916 1.177859,0.799432 1.897714,1.257521 0.102983,0.06554 1.092177,0.754512 1.257521,0.754512"
     id="path359" />
  <path
     style="fill:none;stroke:#000000;stroke-width:1px;stroke-linecap:butt;stroke-linejoin:miter;stroke-opacity:1"
     d="m 9.4199759,11.500602 c 1.8048721,0.0076 3.6024071,0.203153 5.3959081,0.388688 0.547223,0.05661 1.097136,0.149635 1.64621,0.182912 0.177538,0.01076 0.36811,0 0.548736,0"
     id="path361" />
  <path
     style="fill:none;stroke:#000000;stroke-width:1px;stroke-linecap:butt;stroke-linejoin:miter;stroke-opacity:1"
     d="m 8.8712395,11.614922 c -0.2819896,-0.0076 -0.5638827,-0.02094 -0.8459687,-0.02286 -0.838328,-0.0057 -1.6771514,0.02767 -2.5150422,0 -0.7787807,-0.02571 -1.55522,-0.100286 -2.3321299,-0.160048 -0.965582,-0.07428 -0.3578752,-0.06859 -0.8002407,-0.06859"
     id="path363" />
  <path
     style="fill:none;stroke:#000000;stroke-width:1px;stroke-linecap:butt;stroke-linejoin:miter;stroke-opacity:1"
     d="m 4.2069795,17.12515 c 0.030485,0 0.1194766,-0.01201 0.091456,0 -0.300956,0.128982 -0.6722196,0.155008 -0.9831528,0.251505 -0.078396,0.02433 -0.1524268,0.06097 -0.2286402,0.09146 -0.1448055,0.04573 -0.2885838,0.09484 -0.4344164,0.137184 -0.3069091,0.0891 -0.6039862,0.176241 -0.8916967,0.320096 -0.070183,0.03509 -0.1384917,0.07395 -0.2057762,0.11432 -0.114818,0.06889 -0.1872355,0.21937 -0.2972322,0.274368 -0.1681516,0.08408 -0.35424613,0.129498 -0.52587248,0.205777 -0.0981956,0.04364 -0.20540708,0.08209 -0.29723225,0.137184 -0.0326114,0.01957 -0.0751221,0.05553 -0.1143201,0.06859 -0.0308756,0.01029 -0.0864998,0.009 -0.1143201,0.02286 C 0.10889219,18.796938 0.06766671,18.915417 0,19"
     id="path365" />
  <path
     style="fill:none;stroke:#000000;stroke-width:1px;stroke-linecap:butt;stroke-linejoin:miter;stroke-opacity:1"
     d="m 13.741276,18.291215 c -0.119315,-0.268456 -0.166518,-0.205776 0.11432,-0.205776 0.129562,0 0.259168,-0.0033 0.388688,0 0.167787,0.0043 0.335592,0.01091 0.503008,0.02286 0.297353,0.02124 0.594708,0.04277 0.891697,0.06859 0.206264,0.01794 0.411201,0.04915 0.617329,0.06859 0.197861,0.01867 0.396855,0.02456 0.594464,0.04573 0.66426,0.07117 1.254825,0.182014 1.87485,0.388689 0.05564,0.01854 0.268435,0.05673 0.297232,0.11432 0.01896,0.03791 -0.013,0.03586 -0.02286,0.04573 -0.03772,0.03772 0,0.106699 0,0.160048"
     id="path367" />
  <metadata
     id="metadata369">
    <rdf:RDF>
      <cc:Work
         rdf:about="">
        <dc:title>aerialway.svg</dc:title>
      </cc:Work>
    </rdf:RDF>
  </metadata>
</svg>
