<?xml version="1.0" encoding="UTF-8" standalone="no"?>
<svg
   viewBox="0 0 19 19"
   height="19"
   width="19"
   version="1.1"
   id="svg2691"
   sodipodi:docname="mens-toilet.svg"
   inkscape:version="1.1.2 (b8e25be833, 2022-02-05)"
   xmlns:inkscape="http://www.inkscape.org/namespaces/inkscape"
   xmlns:sodipodi="http://sodipodi.sourceforge.net/DTD/sodipodi-0.dtd"
   xmlns="http://www.w3.org/2000/svg"
   xmlns:svg="http://www.w3.org/2000/svg"
   xmlns:rdf="http://www.w3.org/1999/02/22-rdf-syntax-ns#"
   xmlns:cc="http://creativecommons.org/ns#"
   xmlns:dc="http://purl.org/dc/elements/1.1/">
  <defs
     id="defs2695" />
  <sodipodi:namedview
     id="namedview2693"
     pagecolor="#ffffff"
     bordercolor="#999999"
     borderopacity="1"
     inkscape:pageshadow="0"
     inkscape:pageopacity="0"
     inkscape:pagecheckerboard="0"
     showgrid="true"
     inkscape:zoom="30.070646"
     inkscape:cx="7.4158699"
     inkscape:cy="8.6130507"
     inkscape:window-width="1920"
     inkscape:window-height="1017"
     inkscape:window-x="-8"
     inkscape:window-y="-8"
     inkscape:window-maximized="1"
     inkscape:current-layer="svg2691">
    <inkscape:grid
       type="xygrid"
       id="grid4617" />
  </sodipodi:namedview>
  <title
     id="title2685">toilet.svg</title>
  <rect
     fill="none"
     x="0"
     y="0"
     width="19"
     height="19"
     id="rect2687" />
  <path
     fill="#000000"
     d="M 11,4 C 11,3.1716 10.3284,2.5 9.5,2.5 8.6716,2.5 8,3.1716 8,4 8,4.8284 8.6716,5.5 9.5,5.5 10.3284,5.5 11,4.8284 11,4 Z m 0.5,2.5 h -4 C 7.2239,6.5 7,6.7239 7,7 v 5 c 0,0.2761 0.2239,0.5 0.5,0.5 C 7.7761,12.5 8,12.2761 8,12 v 5 c 0,0.2761 0.2239,0.5 0.5,0.5 C 8.7761,17.5 9,17.2761 9,17 v -5 h 1 v 5 c 0,0.2761 0.2239,0.5 0.5,0.5 0.2761,0 0.5,-0.2239 0.5,-0.5 v -5 c 0,0.2761 0.2239,0.5 0.5,0.5 0.2761,0 0.5,-0.2239 0.5,-0.5 V 7 C 12,6.7239 11.7761,6.5 11.5,6.5 Z"
     id="path2689"
     sodipodi:nodetypes="sssssssssscsssccssscssss" />
  <metadata
     id="metadata4601">
    <rdf:RDF>
      <cc:Work
         rdf:about="">
        <dc:title>toilet.svg</dc:title>
      </cc:Work>
    </rdf:RDF>
  </metadata>
</svg>
