<?xml version="1.0" encoding="UTF-8" standalone="no"?>
<svg
   viewBox="0 0 19 19"
   height="19"
   width="19"
   version="1.1"
   id="svg8"
   sodipodi:docname="mens_toilet.svg"
   inkscape:version="1.1.2 (b8e25be833, 2022-02-05)"
   xmlns:inkscape="http://www.inkscape.org/namespaces/inkscape"
   xmlns:sodipodi="http://sodipodi.sourceforge.net/DTD/sodipodi-0.dtd"
   xmlns="http://www.w3.org/2000/svg"
   xmlns:svg="http://www.w3.org/2000/svg"
   xmlns:rdf="http://www.w3.org/1999/02/22-rdf-syntax-ns#"
   xmlns:cc="http://creativecommons.org/ns#"
   xmlns:dc="http://purl.org/dc/elements/1.1/">
  <defs
     id="defs12" />
  <sodipodi:namedview
     id="namedview10"
     pagecolor="#ffffff"
     bordercolor="#999999"
     borderopacity="1"
     inkscape:pageshadow="0"
     inkscape:pageopacity="0"
     inkscape:pagecheckerboard="0"
     showgrid="true"
     inkscape:zoom="76.154153"
     inkscape:cx="9.0474383"
     inkscape:cy="12.120153"
     inkscape:window-width="1920"
     inkscape:window-height="1017"
     inkscape:window-x="-8"
     inkscape:window-y="-8"
     inkscape:window-maximized="1"
     inkscape:current-layer="layer1"
     inkscape:snap-global="false">
    <inkscape:grid
       type="xygrid"
       id="grid1029" />
  </sodipodi:namedview>
  <title
     id="title2">aerialway.svg</title>
  <rect
     fill="none"
     x="0"
     y="0"
     width="19"
     height="19"
     id="rect4" />
  <path
     fill="#000"
     transform="translate(2,2)"
     d="M 13,5 H 8 V 2.6 C 8.1854,2.4953 8.3325,2.3341 8.42,2.14 L 13.5,1.5 C 13.7761,1.5 14,1.2761 14,1 14,0.7239 13.7761,0.5 13.5,0.5 L 8.28,1.15 C 8.0954,0.9037 7.8077,0.7562 7.5,0.75 7.0963,0.752 6.7334,0.9966 6.58,1.37 L 1.5,2 C 1.2239,2 1,2.2239 1,2.5 1,2.7761 1.2239,3 1.5,3 L 6.72,2.35 C 6.7967,2.4503 6.8917,2.5351 7,2.6 V 5 H 2 C 1.4477,5 1,5.4477 1,6 v 7 c 0,0.5523 0.4477,1 1,1 h 11 c 0.5523,0 1,-0.4477 1,-1 V 6 C 14,5.4477 13.5523,5 13,5 Z M 7,11 H 3 V 7 h 4 z m 5,0 H 8 V 7 h 4 z"
     id="path6"
     style="display:none;fill:#000000" />
  <metadata
     id="metadata924">
    <rdf:RDF>
      <cc:Work
         rdf:about="">
        <dc:title>aerialway.svg</dc:title>
      </cc:Work>
    </rdf:RDF>
  </metadata>
  <rect
     style="fill:#333333"
     id="rect1455"
     width="13.13126"
     height="17.648415"
     x="3.1252398"
     y="0.76161307"
     ry="1.1818135" />
  <g
     inkscape:groupmode="layer"
     id="layer1"
     inkscape:label="icon-layer"
     style="opacity:1">
    <circle
       style="fill:#ffffff"
       id="path609"
       cx="9.8756399"
       cy="3.1306791"
       r="1.5363574" />
    <rect
       style="fill:#ffffff;stroke-width:0.915527"
       id="rect735"
       width="3.5729291"
       height="6.0141172"
       x="8.0351057"
       y="4.6484661"
       ry="0.784832" />
    <rect
       style="fill:#ffffff;stroke-width:1.18881"
       id="rect839"
       width="1.4456642"
       height="7.2747178"
       x="8.0351057"
       y="9.1918812"
       ry="1.0215535" />
    <rect
       style="fill:#ffffff;stroke-width:1.18881"
       id="rect839-0"
       width="1.4456642"
       height="7.2747178"
       x="10.176114"
       y="9.178751"
       ry="1.0215535" />
    <rect
       style="fill:#ffffff;stroke-width:1.18881"
       id="rect839-0-3"
       width="1.4456642"
       height="7.2747178"
       x="11.87066"
       y="4.68786"
       ry="1.0215535" />
    <rect
       style="fill:#ffffff;stroke-width:1.46283"
       id="rect839-0-3-9"
       width="2.2813325"
       height="6.9800048"
       x="4.660984"
       y="-13.282077"
       ry="0.9801684"
       transform="rotate(90)" />
    <rect
       style="fill:#ffffff;stroke-width:1.18881"
       id="rect839-0-3-7"
       width="1.4456642"
       height="7.2747178"
       x="6.3155231"
       y="4.68786"
       ry="1.0215535" />
  </g>
</svg>
