<?xml version="1.0" encoding="UTF-8" standalone="no"?>
<svg
   viewBox="0 0 50 50"
   height="50"
   width="50"
   version="1.1"
   id="svg18209"
   sodipodi:docname="stairs.svg"
   inkscape:version="1.1.2 (b8e25be833, 2022-02-05)"
   xmlns:inkscape="http://www.inkscape.org/namespaces/inkscape"
   xmlns:sodipodi="http://sodipodi.sourceforge.net/DTD/sodipodi-0.dtd"
   xmlns="http://www.w3.org/2000/svg"
   xmlns:svg="http://www.w3.org/2000/svg"
   xmlns:rdf="http://www.w3.org/1999/02/22-rdf-syntax-ns#"
   xmlns:cc="http://creativecommons.org/ns#"
   xmlns:dc="http://purl.org/dc/elements/1.1/">
  <defs
     id="defs18213" />
  <sodipodi:namedview
     id="namedview18211"
     pagecolor="#ffffff"
     bordercolor="#999999"
     borderopacity="1"
     inkscape:pageshadow="0"
     inkscape:pageopacity="0"
     inkscape:pagecheckerboard="0"
     showgrid="true"
     inkscape:zoom="8"
     inkscape:cx="-8.3125"
     inkscape:cy="29.875"
     inkscape:window-width="1920"
     inkscape:window-height="1017"
     inkscape:window-x="-8"
     inkscape:window-y="-8"
     inkscape:window-maximized="1"
     inkscape:current-layer="svg18209"
     width="50px">
    <inkscape:grid
       type="xygrid"
       id="grid27904" />
  </sodipodi:namedview>
  <title
     id="title18203">entrance-alt1.svg</title>
  <rect
     fill="none"
     x="0"
     y="0"
     width="19"
     height="19"
     id="rect18205" />
  <path
     fill="#000000"
     d="m 7.6214617,34.868628 c -1.1006649,0 -1.9929324,0.968954 -1.9929324,2.164219 v 9.358245 c 0,2.885606 -3.985865,2.885624 -3.985865,0 V 34.868628 c 0,-2.390532 1.8801774,-4.328437 4.0815108,-4.328437 1.9535173,0.07408 11.8431669,-0.109538 13.0194599,0.126826 1.946684,0.391204 1.771885,4.109441 0.367394,4.114706 0,0 -10.38329,0.122056 -11.4895673,0.08691 z"
     id="path18207"
     sodipodi:nodetypes="csssscsscc"
     style="stroke-width:4.32844" />
  <metadata
     id="metadata18215">
    <rdf:RDF>
      <cc:Work
         rdf:about="">
        <dc:title>entrance-alt1.svg</dc:title>
      </cc:Work>
    </rdf:RDF>
  </metadata>
  <path
     d="m 22.186817,21.121965 c -1.100664,0 -1.992933,0.968954 -1.992933,2.164218 v 9.358247 c 0,2.885606 -3.985864,2.885622 -3.985864,0 V 21.121965 c 0,-2.390532 1.880178,-4.328438 4.081512,-4.328438 1.953516,0.07406 11.843167,-0.109564 13.019457,0.126826 1.946684,0.391204 1.771885,4.109439 0.367397,4.114707 0,0 -10.383287,0.122068 -11.489563,0.08692 z"
     style="fill:#000000;stroke-width:4.32844"
     id="path26660"
     sodipodi:nodetypes="cssssccccc" />
  <path
     d="m 36.877829,7.2016111 c -1.709607,0.09765 -1.992936,0.9689544 -1.992936,2.1642187 v 9.3582452 c 0,2.885603 -3.985866,2.885622 -3.985866,0 V 7.2016111 c 0,-2.3905299 1.880179,-4.3284375 4.081514,-4.3284375 C 36.934061,2.9472376 46.823709,2.7636096 48,3 c 1.946685,0.3912049 1.771886,4.1094404 0.367398,4.1147077 0,0 -9.371408,0.1300455 -11.489564,0.086915 z"
     style="fill:#000000;stroke-width:4.32844"
     id="path26660-4"
     sodipodi:nodetypes="cssssccccc" />
  <path
     style="fill:#ffffff;stroke-width:0.125"
     d="m 2.7195287,48.231917 c -0.2230092,-0.109938 -0.5323842,-0.40397 -0.6875,-0.653403 L 1.75,47.125 V 40.5 33.875 L 2.0825509,33.165606 C 2.5272841,32.216907 3.310897,31.39311 4.1698116,30.971309 L 4.875,30.625 10.589866,30.58789 16.304731,30.55078 16.339871,25.275387 16.375,20 16.705995,19.294005 c 0.421511,-0.899063 1.188947,-1.666499 2.08801,-2.08801 L 19.5,16.875 25.21875,16.83788 30.9375,16.80076 30.9406,11.837879 C 30.9423,9.0198661 30.997095,6.6431665 31.067355,6.3385739 31.37213,5.0173082 32.18231,3.9594521 33.369301,3.3329113 L 34,3 40.1875,2.9606159 c 7.215441,-0.045927 7.845351,-0.012104 8.395467,0.4507878 0.516247,0.434393 0.750302,1.0350108 0.746095,1.9145823 C 49.3254,6.0919397 49.081111,6.7283275 48.717456,6.9192641 48.597855,6.9820605 45.715625,7.0745285 42.3125,7.1247486 36.70487,7.2075007 36.083379,7.2372092 35.680882,7.4417529 34.872431,7.8525974 34.881586,7.7834734 34.812372,14 c -0.0572,5.137166 -0.08289,5.67139 -0.296281,6.159896 -0.12851,0.294194 -0.35111,0.597758 -0.494666,0.674586 -0.176325,0.09437 -2.257253,0.164159 -6.413546,0.215104 -5.9579,0.07303 -6.163447,0.08357 -6.497483,0.333138 -0.189722,0.141747 -0.460925,0.412932 -0.602672,0.602633 -0.249083,0.333347 -0.259819,0.534248 -0.320224,5.992277 -0.05514,4.982643 -0.08728,5.692577 -0.273008,6.03147 -0.404902,0.738806 -0.108122,0.704583 -6.720411,0.774935 -5.9237963,0.06303 -6.1321664,0.07341 -6.5838645,0.328023 -0.2837524,0.159948 -0.5802974,0.478724 -0.7570888,0.813848 -0.2905407,0.550746 -0.2906286,0.552467 -0.293373,5.75 -0.00253,4.798314 -0.020667,5.238552 -0.23524,5.711022 -0.4290372,0.944703 -1.6194453,1.330838 -2.604986,0.844985 z"
     id="path4374" />
</svg>
