<?xml version="1.0" encoding="UTF-8" standalone="no"?>
<svg
   viewBox="0 0 19 19"
   height="19"
   width="19"
   version="1.1"
   id="svg8"
   sodipodi:docname="template.svg"
   inkscape:version="1.1.2 (b8e25be833, 2022-02-05)"
   xmlns:inkscape="http://www.inkscape.org/namespaces/inkscape"
   xmlns:sodipodi="http://sodipodi.sourceforge.net/DTD/sodipodi-0.dtd"
   xmlns="http://www.w3.org/2000/svg"
   xmlns:svg="http://www.w3.org/2000/svg"
   xmlns:rdf="http://www.w3.org/1999/02/22-rdf-syntax-ns#"
   xmlns:cc="http://creativecommons.org/ns#"
   xmlns:dc="http://purl.org/dc/elements/1.1/">
  <defs
     id="defs12" />
  <sodipodi:namedview
     id="namedview10"
     pagecolor="#ffffff"
     bordercolor="#999999"
     borderopacity="1"
     inkscape:pageshadow="0"
     inkscape:pageopacity="0"
     inkscape:pagecheckerboard="0"
     showgrid="false"
     inkscape:zoom="26.924559"
     inkscape:cx="8.4681053"
     inkscape:cy="12.070764"
     inkscape:window-width="1920"
     inkscape:window-height="1017"
     inkscape:window-x="-8"
     inkscape:window-y="-8"
     inkscape:window-maximized="1"
     inkscape:current-layer="layer1" />
  <title
     id="title2">aerialway.svg</title>
  <rect
     fill="none"
     x="0"
     y="0"
     width="19"
     height="19"
     id="rect4" />
  <path
     fill="#000"
     transform="translate(2,2)"
     d="M 13,5 H 8 V 2.6 C 8.1854,2.4953 8.3325,2.3341 8.42,2.14 L 13.5,1.5 C 13.7761,1.5 14,1.2761 14,1 14,0.7239 13.7761,0.5 13.5,0.5 L 8.28,1.15 C 8.0954,0.9037 7.8077,0.7562 7.5,0.75 7.0963,0.752 6.7334,0.9966 6.58,1.37 L 1.5,2 C 1.2239,2 1,2.2239 1,2.5 1,2.7761 1.2239,3 1.5,3 L 6.72,2.35 C 6.7967,2.4503 6.8917,2.5351 7,2.6 V 5 H 2 C 1.4477,5 1,5.4477 1,6 v 7 c 0,0.5523 0.4477,1 1,1 h 11 c 0.5523,0 1,-0.4477 1,-1 V 6 C 14,5.4477 13.5523,5 13,5 Z M 7,11 H 3 V 7 h 4 z m 5,0 H 8 V 7 h 4 z"
     id="path6"
     style="display:none;fill:#000000" />
  <metadata
     id="metadata924">
    <rdf:RDF>
      <cc:Work
         rdf:about="">
        <dc:title>aerialway.svg</dc:title>
      </cc:Work>
    </rdf:RDF>
  </metadata>
  <rect
     style="fill:#333333"
     id="rect1455"
     width="13.13126"
     height="17.648415"
     x="3.1252398"
     y="0.76161307"
     ry="1.1818135" />
  <g
     inkscape:groupmode="layer"
     id="layer1"
     inkscape:label="icon-layer" />
</svg>
